<svg width="30" height="30" viewBox="0 0 30 30" fill="none" xmlns="http://www.w3.org/2000/svg">
<g clip-path="url(#clip0_507_17316)">
<path d="M29.3729 14.8692C29.3729 6.86662 22.879 0.382812 14.8642 0.382812C6.84928 0.382812 0.355469 6.86662 0.355469 14.8692C0.355469 22.0995 5.66109 28.0926 12.5972 29.1803V19.0568H8.9115V14.8692H12.5972V11.6775C12.5972 8.04714 14.7618 6.04183 18.0771 6.04183C19.6649 6.04183 21.3252 6.32455 21.3252 6.32455V9.88772H19.4952C17.6934 9.88772 17.1311 11.0046 17.1311 12.15V14.8692H21.155L20.5114 19.0568H17.1311V29.1803C24.0672 28.0926 29.3729 22.0995 29.3729 14.8692Z" fill="#02013D"/>
</g>
<defs>
<clipPath id="clip0_507_17316">
<rect width="29.0174" height="28.7975" fill="white" transform="translate(0.355469 0.382812)"/>
</clipPath>
</defs>
</svg>
