<svg width="30" height="31" viewBox="0 0 30 31" fill="none" xmlns="http://www.w3.org/2000/svg">
<ellipse cx="15.0197" cy="15.7806" rx="14.6486" ry="14.9994" fill="#02013D"/>
<path d="M15.0059 11.0109C17.6662 11.0109 19.812 13.2773 19.812 16.0872C19.812 18.897 17.6662 21.1635 15.0059 21.1635C12.3456 21.1635 10.1998 18.897 10.1998 16.0872C10.1998 13.2773 12.3456 11.0109 15.0059 11.0109ZM15.0059 19.3874C16.725 19.3874 18.1305 17.9074 18.1305 16.0872C18.1305 14.267 16.7292 12.7869 15.0059 12.7869C13.2826 12.7869 11.8813 14.267 11.8813 16.0872C11.8813 17.9074 13.2867 19.3874 15.0059 19.3874ZM8.88219 10.8032C8.88219 11.4615 9.38414 11.9873 10.0032 11.9873C10.6264 11.9873 11.1242 11.4571 11.1242 10.8032C11.1242 10.1494 10.6223 9.6192 10.0032 9.6192C9.38414 9.6192 8.88219 10.1494 8.88219 10.8032ZM5.69904 12.0049C5.77015 10.4189 6.11314 9.01393 7.21323 7.85641C8.30914 6.69889 9.63929 6.33661 11.1409 6.25708C12.6886 6.16431 17.3274 6.16431 18.875 6.25708C20.3725 6.33219 21.7026 6.69447 22.8027 7.85199C23.9028 9.00951 24.2416 10.4144 24.3169 12.0005C24.4048 13.6352 24.4048 18.5348 24.3169 20.1694C24.2458 21.7555 23.9028 23.1604 22.8027 24.3179C21.7026 25.4755 20.3767 25.8377 18.875 25.9173C17.3274 26.01 12.6886 26.01 11.1409 25.9173C9.63929 25.8422 8.30914 25.4799 7.21323 24.3179C6.11732 23.1604 5.77433 21.7555 5.69904 20.1694C5.6112 18.5348 5.6112 13.6396 5.69904 12.0049ZM7.69844 21.9234C8.02471 22.7893 8.65632 23.4564 9.48034 23.8055C10.7143 24.3224 13.6423 24.2031 15.0059 24.2031C16.3695 24.2031 19.3017 24.3179 20.5314 23.8055C21.3513 23.4609 21.9829 22.7937 22.3133 21.9234C22.8027 20.6201 22.6898 17.5275 22.6898 16.0872C22.6898 14.6469 22.7986 11.5499 22.3133 10.251C21.9871 9.38504 21.3555 8.71792 20.5314 8.3689C19.2975 7.85199 16.3695 7.97128 15.0059 7.97128C13.6423 7.97128 10.7101 7.85641 9.48034 8.3689C8.6605 8.7135 8.02889 9.38062 7.69844 10.251C7.20905 11.5543 7.32199 14.6469 7.32199 16.0872C7.32199 17.5275 7.20905 20.6245 7.69844 21.9234Z" fill="white"/>
</svg>
