<svg width="30" height="31" viewBox="0 0 30 31" fill="none" xmlns="http://www.w3.org/2000/svg">
<ellipse cx="15.3205" cy="15.7806" rx="14.6486" ry="14.9994" fill="#02013D"/>
<path d="M13.2998 12.7503L18.51 15.7935L13.2998 18.8367V12.7503ZM25.2964 15.7991C25.2964 15.7991 25.2964 12.4465 24.8805 10.8377C24.6506 9.94895 23.9774 9.25143 23.1182 9.01517C21.5694 8.58203 15.3357 8.58203 15.3357 8.58203C15.3357 8.58203 9.10206 8.58203 7.55322 9.01517C6.69397 9.25143 6.0208 9.94895 5.79094 10.8377C5.375 12.4409 5.375 15.7991 5.375 15.7991C5.375 15.7991 5.375 19.1518 5.79094 20.7606C6.0208 21.6493 6.69397 22.3187 7.55322 22.555C9.10206 22.9825 15.3357 22.9825 15.3357 22.9825C15.3357 22.9825 21.5694 22.9825 23.1182 22.5494C23.9774 22.3131 24.6506 21.6437 24.8805 20.7549C25.2964 19.1518 25.2964 15.7991 25.2964 15.7991Z" fill="white"/>
</svg>
