<svg width="38" height="24" viewBox="0 0 38 24" fill="none" xmlns="http://www.w3.org/2000/svg">
<path d="M36.9871 19.1288C36.9717 19.1345 36.9557 19.1393 36.9399 19.1454C32.6476 8.8398 23.6632 8.91429 20.5195 12.1719C18.0364 11.6399 15.6363 11.9591 13.2679 12.6319C18.0152 10.33 23.8798 7.35548 23.9771 1.03119C23.9798 0.887044 23.7756 0.784013 23.6924 0.914627C22.4927 2.76795 11.2491 5.29691 10.6713 13.4887C7.27549 14.7363 3.90801 16.3367 0.420207 16.7915C0.210471 16.8196 0.219632 17.1777 0.432109 17.1487C2.49715 16.8798 4.48284 16.2619 6.44228 15.5463C9.95926 18.5194 10.1191 24.2892 18.7946 23.7891C18.1894 17.6284 10.4589 14.8506 7.39593 15.1887C8.31639 14.8373 9.23509 14.475 10.1539 14.1214C13.5175 12.832 16.8905 11.7614 20.4487 12.5197C23.5484 15.084 25.1194 24.9395 36.8858 19.5415C36.9013 19.5518 36.9157 19.5643 36.9294 19.5738C37.0594 19.6625 37.1753 19.5261 37.1662 19.3971C37.2382 19.2715 37.148 19.0648 36.9871 19.1288ZM18.4801 23.6388C9.90282 22.5754 11.7581 18.2209 6.88819 15.4801C9.24047 15.7743 16.1995 18.7886 18.4801 23.6388ZM11.0358 13.3546C11.7445 8.64595 22.8875 2.55006 23.6225 1.59031C23.1587 7.90719 13.8046 11.8463 11.0358 13.3546ZM21.4248 12.2994C23.4815 11.0166 30.8592 9.48217 36.5294 19.2718C24.9068 19.7277 28.2022 17.1434 21.4248 12.2994Z" fill="white"/>
</svg>
