<svg width="59" height="59" viewBox="0 0 59 59" fill="none" xmlns="http://www.w3.org/2000/svg">
<path d="M24.4974 19.9834C24.1769 19.9834 23.8696 20.1107 23.643 20.3373C23.4164 20.5639 23.2891 20.8713 23.2891 21.1917C23.2891 21.5122 23.4164 21.8195 23.643 22.0462C23.8696 22.2728 24.1769 22.4001 24.4974 22.4001H26.9141C27.6743 22.387 28.4194 22.6134 29.0439 23.0471C29.6684 23.4808 30.1407 24.0998 30.3941 24.8167H24.4974C24.1769 24.8167 23.8696 24.944 23.643 25.1706C23.4164 25.3972 23.2891 25.7046 23.2891 26.0251C23.2891 26.3455 23.4164 26.6529 23.643 26.8795C23.8696 27.1061 24.1769 27.2334 24.4974 27.2334H30.2974C30.0495 27.9347 29.5919 28.5427 28.9866 28.975C28.3814 29.4073 27.6578 29.643 26.9141 29.6501H24.4974C24.2599 29.651 24.0279 29.722 23.8305 29.8541C23.6331 29.9862 23.4789 30.1735 23.3874 30.3927C23.2959 30.6119 23.2709 30.8532 23.3158 31.0865C23.3606 31.3197 23.4732 31.5346 23.6395 31.7042L30.8895 38.9542C31.0014 39.0684 31.1348 39.1592 31.2821 39.2215C31.4294 39.2837 31.5875 39.3161 31.7474 39.3167C31.9064 39.3176 32.0641 39.2872 32.2113 39.227C32.3585 39.1669 32.4924 39.0783 32.6053 38.9663C32.7186 38.854 32.8085 38.7203 32.8698 38.5731C32.9312 38.4258 32.9627 38.2679 32.9627 38.1084C32.9627 37.9489 32.9312 37.7909 32.8698 37.6437C32.8085 37.4964 32.7186 37.3628 32.6053 37.2505L27.3853 32.0667C28.6915 31.9586 29.9272 31.4287 30.9058 30.5568C31.8845 29.685 32.5531 28.5185 32.8107 27.2334H34.1641C34.4845 27.2334 34.7919 27.1061 35.0185 26.8795C35.2451 26.6529 35.3724 26.3455 35.3724 26.0251C35.3724 25.7046 35.2451 25.3972 35.0185 25.1706C34.7919 24.944 34.4845 24.8167 34.1641 24.8167H32.8349C32.668 23.9367 32.2954 23.1086 31.7474 22.4001H34.1641C34.4845 22.4001 34.7919 22.2728 35.0185 22.0462C35.2451 21.8195 35.3724 21.5122 35.3724 21.1917C35.3724 20.8713 35.2451 20.5639 35.0185 20.3373C34.7919 20.1107 34.4845 19.9834 34.1641 19.9834H24.4974Z" fill="#CA1C26"/>
<path d="M29.3177 52.6149C24.777 52.6149 20.3382 51.2684 16.5627 48.7457C12.7873 46.223 9.84464 42.6374 8.10698 38.4423C6.36932 34.2473 5.91467 29.6311 6.80052 25.1776C7.68638 20.7242 9.87294 16.6334 13.0837 13.4226C16.2945 10.2118 20.3853 8.02524 24.8388 7.13939C29.2922 6.25354 33.9084 6.70819 38.1035 8.44585C42.2986 10.1835 45.8842 13.1261 48.4069 16.9016C50.9296 20.6771 52.276 25.1158 52.276 29.6566C52.276 35.7455 49.8572 41.585 45.5517 45.8906C41.2462 50.1961 35.4066 52.6149 29.3177 52.6149ZM29.3177 9.11492C25.255 9.11492 21.2834 10.3197 17.9054 12.5768C14.5273 14.834 11.8944 18.0421 10.3397 21.7956C8.78494 25.5491 8.37815 29.6794 9.17075 33.6641C9.96336 37.6487 11.9198 41.3089 14.7926 44.1817C17.6654 47.0545 21.3255 49.0109 25.3102 49.8035C29.2949 50.5961 33.4252 50.1893 37.1787 48.6346C40.9322 47.0798 44.1403 44.447 46.3975 41.0689C48.6546 37.6909 49.8594 33.7193 49.8594 29.6566C49.8594 24.2086 47.6952 18.9837 43.8429 15.1314C39.9905 11.2791 34.7657 9.11492 29.3177 9.11492Z" fill="#CA1C26"/>
<path d="M29.3242 58.6533C23.5886 58.6533 17.9817 56.9525 13.2127 53.7659C8.44367 50.5794 4.72667 46.0502 2.53172 40.7511C0.336784 35.4521 -0.237513 29.6212 0.881459 23.9957C2.00043 18.3703 4.76241 13.203 8.81813 9.14723C12.8739 5.09151 18.0412 2.32953 23.6666 1.21056C29.2921 0.091589 35.123 0.665886 40.422 2.86083C45.7211 5.05577 50.2503 8.77277 53.4368 13.5418C56.6234 18.3108 58.3242 23.9177 58.3242 29.6533C58.3242 37.3446 55.2689 44.7209 49.8303 50.1594C44.3918 55.598 37.0155 58.6533 29.3242 58.6533ZM29.3242 3.07C24.0665 3.07 18.9269 4.62908 14.5553 7.5501C10.1837 10.4711 6.77646 14.6229 4.76443 19.4803C2.7524 24.3378 2.22597 29.6828 3.25169 34.8395C4.27741 39.9961 6.80923 44.7328 10.527 48.4506C14.2447 52.1683 18.9814 54.7001 24.1381 55.7259C29.2947 56.7516 34.6398 56.2251 39.4972 54.2131C44.3547 52.2011 48.5064 48.7938 51.4275 44.4222C54.3485 40.0506 55.9076 34.911 55.9076 29.6533C55.9076 22.603 53.1068 15.8414 48.1215 10.8561C43.1361 5.87074 36.3746 3.07 29.3242 3.07Z" fill="#CA1C26"/>
<path d="M29.3177 52.6149C24.777 52.6149 20.3382 51.2684 16.5627 48.7457C12.7873 46.223 9.84464 42.6374 8.10698 38.4423C6.36932 34.2473 5.91467 29.6311 6.80052 25.1776C7.68638 20.7242 9.87294 16.6334 13.0837 13.4226C16.2945 10.2118 20.3853 8.02524 24.8388 7.13939C29.2922 6.25354 33.9084 6.70819 38.1035 8.44585C42.2986 10.1835 45.8842 13.1261 48.4069 16.9016C50.9296 20.6771 52.276 25.1158 52.276 29.6566C52.276 35.7455 49.8572 41.585 45.5517 45.8906C41.2462 50.1961 35.4066 52.6149 29.3177 52.6149ZM29.3177 9.11492C25.255 9.11492 21.2834 10.3197 17.9054 12.5768C14.5273 14.834 11.8944 18.0421 10.3397 21.7956C8.78494 25.5491 8.37815 29.6794 9.17075 33.6641C9.96336 37.6487 11.9198 41.3089 14.7926 44.1817C17.6654 47.0545 21.3255 49.0109 25.3102 49.8035C29.2949 50.5961 33.4252 50.1893 37.1787 48.6346C40.9322 47.0798 44.1403 44.447 46.3975 41.0689C48.6546 37.6909 49.8594 33.7193 49.8594 29.6566C49.8594 24.2086 47.6952 18.9837 43.8429 15.1314C39.9905 11.2791 34.7657 9.11492 29.3177 9.11492Z" fill="#CA1C26"/>
<path d="M29.3242 58.6533C23.5886 58.6533 17.9817 56.9525 13.2127 53.7659C8.44367 50.5794 4.72667 46.0502 2.53172 40.7511C0.336784 35.4521 -0.237513 29.6212 0.881459 23.9957C2.00043 18.3703 4.76241 13.203 8.81813 9.14723C12.8739 5.09151 18.0412 2.32953 23.6666 1.21056C29.2921 0.091589 35.123 0.665886 40.422 2.86083C45.7211 5.05577 50.2503 8.77277 53.4368 13.5418C56.6234 18.3108 58.3242 23.9177 58.3242 29.6533C58.3242 37.3446 55.2689 44.7209 49.8303 50.1594C44.3918 55.598 37.0155 58.6533 29.3242 58.6533ZM29.3242 3.07C24.0665 3.07 18.9269 4.62908 14.5553 7.5501C10.1837 10.4711 6.77646 14.6229 4.76443 19.4803C2.7524 24.3378 2.22597 29.6828 3.25169 34.8395C4.27741 39.9961 6.80923 44.7328 10.527 48.4506C14.2447 52.1683 18.9814 54.7001 24.1381 55.7259C29.2947 56.7516 34.6398 56.2251 39.4972 54.2131C44.3547 52.2011 48.5064 48.7938 51.4275 44.4222C54.3485 40.0506 55.9076 34.911 55.9076 29.6533C55.9076 22.603 53.1068 15.8414 48.1215 10.8561C43.1361 5.87074 36.3746 3.07 29.3242 3.07Z" fill="#CA1C26"/>
</svg>
