<svg width="26" height="25" viewBox="0 0 26 25" fill="none" xmlns="http://www.w3.org/2000/svg">
<g clip-path="url(#clip0_234_16768)">
<path d="M11.7751 23.4101H1.68172C1.33035 23.2279 1.20022 22.939 1.24186 22.5486C1.26268 22.3455 1.24186 22.1399 1.24967 21.9369C1.25748 21.7313 1.34337 21.5595 1.53857 21.4788C1.67911 21.4216 1.83528 21.3669 1.98364 21.3643C2.55623 21.3513 3.12883 21.3591 3.70924 21.3591V19.355C2.9961 19.3238 2.72801 18.9698 2.61869 18.5481C2.525 18.1786 2.46254 17.8012 2.37665 17.4316C2.36103 17.3613 2.30116 17.265 2.2387 17.2442C1.74939 17.0777 1.4683 16.7158 1.2809 16.2551C1.20803 16.0782 1.23405 15.9194 1.38501 15.8101C1.52035 15.7112 1.76241 15.8101 1.8613 15.9767C1.90815 16.0548 1.94199 16.1407 1.99145 16.2188C2.1398 16.4452 2.3272 16.6377 2.6135 16.643C3.26938 16.6534 3.92266 16.643 4.57854 16.643C4.6306 16.643 4.68525 16.6326 4.74252 16.6248C4.69567 16.4191 4.64882 16.2344 4.60978 16.0495C4.45882 15.3312 4.31567 14.6102 4.1595 13.8919C4.14389 13.8216 4.08403 13.7253 4.02416 13.7071C3.50102 13.551 3.22774 13.1527 3.02212 12.6895C2.95444 12.5384 2.97267 12.3823 3.12363 12.2938C3.25636 12.2157 3.41773 12.1845 3.53225 12.3329C3.61553 12.4369 3.678 12.5619 3.74828 12.6739C3.91224 12.9341 4.12307 13.1059 4.45361 13.1007C5.02881 13.0955 5.60402 13.1007 6.17922 13.1007C6.2651 13.1007 6.34839 13.1007 6.43688 13.1007C6.34839 12.5983 6.27291 12.1168 6.17922 11.6406C6.15839 11.5364 6.15839 11.4063 6.00483 11.3646C5.47908 11.2241 5.2058 10.8233 5.02621 10.3496C4.96895 10.1986 4.98457 10.0295 5.17196 9.95137C5.34634 9.87854 5.4973 9.92797 5.60662 10.0737C5.65347 10.1336 5.67428 10.2117 5.70812 10.2819C5.8747 10.6307 6.14017 10.8077 6.53578 10.7895C6.79606 10.7791 7.05893 10.7895 7.3218 10.7895C7.72523 10.7895 8.13125 10.7895 8.53727 10.7895C8.44878 10.3678 8.3707 9.96697 8.277 9.56879C8.25878 9.49071 8.19892 9.3788 8.13385 9.36057C7.61331 9.20701 7.34002 8.814 7.1318 8.35592C7.0277 8.12428 7.16044 7.92908 7.40509 7.90826C7.63673 7.89004 7.72002 8.04621 7.7929 8.20496C7.88139 8.39496 7.9829 8.56154 8.20152 8.67605C8.20152 8.1373 8.20933 7.63497 8.19632 7.13525C8.19371 7.02594 8.13906 6.90882 8.0766 6.81511C7.99851 6.7006 7.96988 6.58607 8.02454 6.46635C8.0766 6.34923 8.16769 6.27896 8.31344 6.28937C8.49043 6.30238 8.67001 6.29198 8.87042 6.29198C8.87042 6.17745 8.87042 6.09156 8.87042 6.00568C8.87042 5.64129 8.86782 5.27691 8.87823 4.91254C8.88344 4.74596 8.96933 4.63404 9.16193 4.62884C9.35713 4.62363 9.47946 4.70692 9.51329 4.89692C9.52891 4.9828 9.5237 5.07129 9.5237 5.15979C9.5237 5.53458 9.5237 5.91198 9.5237 6.29457C9.69288 6.29457 9.83083 6.29978 9.96877 6.29457C10.1223 6.28677 10.2629 6.31279 10.3175 6.47416C10.367 6.62512 10.3566 6.77347 10.2056 6.87498C10.1952 6.88799 10.1822 6.89841 10.1718 6.91142V8.75154H11.2545C11.2545 8.29866 11.2467 7.85621 11.2571 7.41374C11.2623 7.20292 11.2519 7.02333 11.0489 6.89841C10.9838 6.85676 10.9162 6.76307 10.9109 6.69018C10.8875 6.34142 10.8537 5.98745 10.8875 5.64129C10.9162 5.34458 11.166 5.20403 11.4471 5.14418C11.4471 4.56377 11.4471 3.99377 11.4445 3.42638C11.4445 3.36391 11.4107 3.28063 11.3638 3.24419C11.2207 3.13488 11.2051 2.9709 11.2701 2.85639C11.3248 2.76009 11.4809 2.68981 11.6033 2.66899C11.7673 2.63775 11.9416 2.66118 12.116 2.66118C12.116 2.20571 12.1212 1.78927 12.116 1.37544C12.1134 1.19325 12.1732 1.06832 12.3424 0.998047H12.5168C12.7016 1.11257 12.7849 1.26873 12.7771 1.49776C12.7615 1.88036 12.7719 2.26557 12.7719 2.66379C12.9437 2.66379 13.1024 2.64036 13.2455 2.6716C13.3549 2.69501 13.4825 2.76529 13.5449 2.85639C13.6203 2.9657 13.5943 3.10104 13.485 3.21295C13.4382 3.26241 13.4122 3.3535 13.4122 3.42638C13.4069 3.95213 13.4122 4.47528 13.4069 5.00103C13.4069 5.11814 13.4329 5.1754 13.5605 5.21184C13.8026 5.27952 13.9561 5.52678 13.9561 5.78704C13.9561 6.0343 13.9822 6.28677 13.9483 6.52882C13.9249 6.68498 13.8104 6.82813 13.7349 6.97648C13.6933 7.05716 13.6152 7.13265 13.6125 7.21333C13.5996 7.54908 13.6074 7.88483 13.6074 8.21798V8.75154H14.6979C14.6979 8.16072 14.6979 7.57771 14.6953 6.99731C14.6953 6.95306 14.6667 6.90101 14.6329 6.86977C14.5287 6.76567 14.4455 6.66416 14.5079 6.50279C14.5755 6.32841 14.7057 6.25553 14.8827 6.25293C15.0389 6.25293 15.1951 6.25293 15.359 6.25293C15.359 5.80006 15.3564 5.37842 15.359 4.95678C15.3616 4.72514 15.4527 4.63664 15.6661 4.63404C15.8795 4.63144 16.0097 4.76678 16.0123 5.00623C16.0175 5.42267 16.0175 5.83649 16.0201 6.25293C16.0331 6.26594 16.0435 6.27636 16.0565 6.28937C16.21 6.28937 16.3611 6.30238 16.5146 6.29457C16.6707 6.28677 16.7722 6.36485 16.7983 6.50019C16.8165 6.59649 16.7749 6.7058 16.7488 6.80471C16.7359 6.85676 16.6656 6.89841 16.6656 6.94525C16.6604 7.51004 16.6629 8.07483 16.6629 8.63962C16.6838 8.65003 16.7046 8.65784 16.7254 8.66824C16.8503 8.48345 16.9857 8.30647 17.1002 8.11647C17.2095 7.93949 17.3995 7.8536 17.5661 7.92908C17.6936 7.98634 17.777 8.22579 17.6989 8.38715C17.5166 8.76195 17.3085 9.14975 16.8894 9.27468C16.5692 9.37099 16.5407 9.58701 16.4938 9.83164C16.4833 9.88634 16.4677 9.94094 16.4573 9.99564C16.4079 10.2559 16.3584 10.5162 16.3064 10.7973C17.0274 10.7973 17.7118 10.8051 18.3937 10.792C18.5265 10.792 18.6644 10.7244 18.7894 10.6671C19.0211 10.5605 19.1069 10.334 19.211 10.1232C19.2943 9.95137 19.4687 9.88108 19.6352 9.94874C19.8174 10.0217 19.8669 10.17 19.8123 10.3366C19.6534 10.8285 19.3385 11.1928 18.8493 11.3673C18.7321 11.4089 18.6957 11.4454 18.6748 11.5573C18.6254 11.8436 18.5577 12.1246 18.5083 12.4109C18.4667 12.6374 18.4406 12.8664 18.4068 13.1059C19.0965 13.1059 19.7524 13.1137 20.4057 13.1033C20.7076 13.0981 20.9444 12.9497 21.0849 12.6712C21.1318 12.5775 21.1813 12.4812 21.2333 12.3901C21.327 12.2261 21.4832 12.2261 21.6315 12.2678C21.7669 12.3042 21.8398 12.4031 21.8242 12.5619C21.7851 12.9679 21.3557 13.5379 20.8377 13.6993C20.7804 13.7175 20.705 13.7644 20.6919 13.8112C20.6347 14.0142 20.5982 14.2225 20.5566 14.4306C20.502 14.6857 20.3406 14.8029 20.1168 14.7482C19.9372 14.7039 19.8564 14.5036 19.9189 14.2719C19.9606 14.1105 19.9944 13.9492 20.0335 13.78H18.209C18.2012 13.8555 18.2116 13.9283 18.1856 13.983C18.0502 14.2485 17.9226 14.5192 17.7561 14.7638C17.5478 15.0709 17.2564 15.123 16.9128 14.9668C16.8712 14.946 16.8243 14.9329 16.7619 14.907C16.7619 15.1542 16.7098 15.3936 16.7722 15.5993C16.8738 15.9272 17.043 16.2344 17.1965 16.5415C17.2226 16.5936 17.3163 16.643 17.3787 16.6455C18.0476 16.6534 18.7165 16.6508 19.4037 16.6508C19.4244 16.5753 19.4478 16.5024 19.4635 16.4296C19.5077 16.2369 19.539 16.0417 19.5962 15.8543C19.6534 15.6618 19.8226 15.6409 19.9841 15.6747C20.1246 15.7034 20.2312 15.7919 20.2053 15.9662C20.1715 16.1927 20.1375 16.4191 20.1012 16.6534C20.6972 16.6534 21.2879 16.6326 21.8762 16.6586C22.402 16.682 22.7768 16.505 22.9667 15.9949C23.0188 15.8518 23.1203 15.7971 23.2842 15.7971C23.4612 15.7971 23.5237 15.922 23.6148 16.0235V16.2422C23.5758 16.2916 23.5263 16.3332 23.5003 16.3879C23.3103 16.8044 23.0162 17.0984 22.5789 17.252C22.5191 17.2728 22.4566 17.3561 22.441 17.4211C22.3837 17.6554 22.3577 17.8949 22.3005 18.1266C22.2224 18.4597 22.2275 18.8423 21.9048 19.0583C21.681 19.2093 21.4181 19.3055 21.1526 19.4357V21.3669C21.6914 21.3669 22.2146 21.3773 22.7377 21.3643C23.1463 21.3539 23.4509 21.4944 23.6122 21.8874V22.9832C23.5973 23.2805 23.4427 23.4296 23.1307 23.4204H13.0374C12.9802 23.3345 12.8916 23.2539 12.8708 23.1602C12.8213 22.9234 12.9802 22.7645 13.2455 22.7645C14.3075 22.7645 15.3694 22.7645 16.4313 22.7645C16.5068 22.7645 16.5848 22.7645 16.6785 22.7645V22.041H8.15728V22.7645C9.0448 22.7645 9.91932 22.7645 10.7912 22.7645C11.0593 22.7645 11.33 22.7489 11.5981 22.7723C11.7126 22.7828 11.8479 22.8453 11.926 22.9285C12.0145 23.0249 11.9936 23.1654 11.9026 23.2773C11.861 23.3293 11.8141 23.3736 11.7673 23.423L11.7751 23.4101ZM8.86001 8.74113C8.86001 8.74113 8.86001 8.76455 8.86001 8.77496C8.87042 8.76455 8.88344 8.75675 8.89384 8.74633H9.49508V6.96347H8.85741V8.74113H8.86001ZM10.3331 15.935C9.81 15.935 9.28685 15.9272 8.76371 15.935C8.70384 15.935 8.61275 15.9715 8.59193 16.0183C8.49824 16.2135 8.42275 16.4165 8.32905 16.6482C8.87823 16.6482 9.39357 16.6482 9.9063 16.6455C9.94794 16.6455 10.0078 16.5987 10.0312 16.5571C10.1484 16.3644 10.2577 16.1692 10.367 15.974C10.354 15.9636 10.341 15.9506 10.3305 15.9402L10.3331 15.935ZM14.4871 15.935C14.4871 15.935 14.4636 15.9377 14.4533 15.9402C14.4636 15.9533 14.474 15.9636 14.4845 15.9767C14.7239 16.5961 14.7968 16.6482 15.4293 16.6482H15.6479C15.9342 16.6482 16.2231 16.6482 16.5276 16.6482C16.4131 16.3905 16.3116 16.1667 16.21 15.9377H14.4896L14.4871 15.935ZM11.9156 7.16909V8.6136H11.9989C12.3086 8.47825 12.6105 8.55633 12.9124 8.65003C12.9228 8.63962 12.9359 8.6266 12.9463 8.6162V7.17169C12.9463 7.17169 12.9228 7.14827 12.9124 7.13525C12.5923 7.13525 12.2722 7.13525 11.952 7.13525C11.939 7.14827 11.9286 7.15867 11.9156 7.17169V7.16909ZM8.19371 17.3327L8.15728 17.3692V19.9093C8.15728 19.9093 8.1807 19.9328 8.19371 19.9458H8.76631V17.3327H8.19371ZM16.7046 17.3692C16.7046 17.3692 16.6812 17.3457 16.6682 17.3327H16.0956V19.9458H16.6682L16.7046 19.9093V17.3692ZM8.71686 15.2714C9.39357 15.2714 10.039 15.2714 10.6872 15.2661C10.7417 15.2661 10.8172 15.2167 10.8459 15.1672C11.1868 14.5946 11.5174 14.0168 11.8661 13.4468C11.9364 13.3323 12.0483 13.2204 12.1681 13.1709C12.5142 13.0252 12.7979 13.1449 13.0009 13.4885C13.3289 14.0429 13.6568 14.5972 13.99 15.149C14.0212 15.2011 14.0915 15.2636 14.1435 15.2636C14.789 15.2714 15.4344 15.2687 16.0982 15.2687C16.0982 15.1152 16.0825 14.9772 16.1007 14.8445C16.145 14.5452 16.0669 14.324 15.7833 14.1808C15.6531 14.1132 15.5386 14.009 15.4266 13.9153C14.9659 13.5301 14.4896 13.1605 14.0525 12.7493C13.5241 12.247 13.0321 11.7082 12.5246 11.185C12.4492 11.107 12.4153 11.0835 12.3138 11.1903C11.7855 11.7447 11.2597 12.3094 10.6872 12.8196C10.0807 13.3609 9.4248 13.845 8.79494 14.3552C8.7559 14.3865 8.71946 14.4437 8.71686 14.488C8.70905 14.7404 8.71426 14.9954 8.71426 15.2739L8.71686 15.2714ZM17.1965 14.4125C17.298 14.2381 17.3604 14.1105 17.4412 13.9986C17.5166 13.8919 17.5115 13.845 17.3917 13.7669C16.4183 13.1267 15.5022 12.4135 14.6563 11.6094C13.9379 10.9274 13.2846 10.1882 12.6991 9.3892C12.5117 9.13414 12.3112 9.16277 12.1186 9.41002C11.7646 9.86031 11.4132 10.3184 11.0228 10.7374C10.5622 11.2293 10.0729 11.6978 9.57055 12.1507C9.18535 12.4968 8.76631 12.8092 8.34988 13.1241C8.01413 13.3792 7.66015 13.6108 7.3114 13.8581C7.4103 14.0298 7.5066 14.1938 7.6081 14.3708C7.8866 14.186 8.1729 14.0273 8.42535 13.8243C9.20617 13.1944 9.98958 12.5697 10.7366 11.9008C11.2207 11.4661 11.6319 10.956 12.0795 10.4824C12.254 10.3001 12.6651 10.3366 12.824 10.5292C13.0817 10.8389 13.3314 11.159 13.6178 11.4401C14.1071 11.919 14.6068 12.3928 15.1352 12.83C15.7962 13.3739 16.4911 13.8789 17.1965 14.4203V14.4125ZM8.03234 14.8991C7.95166 14.9356 7.884 14.972 7.81372 14.9981C7.51961 15.11 7.2151 15.0241 7.06934 14.7612C6.88716 14.4385 6.72578 14.1079 6.5514 13.7696H4.79717C5.00278 14.7274 5.2058 15.6774 5.41141 16.643C5.95798 16.643 6.49675 16.6117 7.03291 16.6534C7.45194 16.6846 7.68098 16.5727 7.83194 16.1536C7.97769 15.7503 8.12865 15.3651 8.03494 14.8991H8.03234ZM16.6812 20.6304H8.15988V21.3486H16.6812V20.6304ZM20.4733 22.7463V19.3394H18.6566V22.7463H20.4733ZM4.37813 22.736H6.20003V19.3446H4.37813V22.736ZM12.1029 19.9432C12.1029 19.3654 12.0926 18.811 12.1108 18.2593C12.1134 18.1526 12.2019 18.0042 12.2956 17.9548C12.4101 17.8923 12.5767 17.9131 12.6573 18.0589C12.7094 18.1551 12.751 18.2697 12.7537 18.3763C12.7641 18.8969 12.7588 19.4175 12.7588 19.9406H13.5215V17.3118H11.3404V19.9406H12.1056L12.1029 19.9432ZM6.20003 18.6731V17.3145H3.02993C3.10801 17.671 3.17828 18.0094 3.25376 18.3478C3.31102 18.6106 3.38389 18.6731 3.64417 18.6731C4.22718 18.6731 4.80758 18.6731 5.39059 18.6731C5.65866 18.6731 5.92415 18.6731 6.20003 18.6731ZM18.6541 17.3093V18.6731C19.5259 18.6731 20.3823 18.6809 21.2385 18.6627C21.3453 18.6627 21.5171 18.5455 21.5456 18.4466C21.6549 18.077 21.7174 17.6971 21.8007 17.3067H18.6541V17.3093ZM14.0837 16.6326C13.5241 15.6747 12.9827 14.7482 12.4153 13.7774C11.8532 14.7404 11.3092 15.6747 10.7522 16.6274H12.077C12.077 16.518 12.077 16.4218 12.077 16.3281C12.077 16.2266 12.0717 16.1224 12.077 16.0209C12.0926 15.7971 12.2123 15.693 12.4387 15.7034C12.6444 15.7138 12.7303 15.8127 12.7329 16.0392C12.7329 16.2344 12.7329 16.4269 12.7329 16.6326H14.0837ZM10.6663 17.3171H9.44302V19.9432H10.6663V17.3171ZM15.4188 17.3118H14.2008V19.951H15.4188V17.3118ZM17.3787 17.3327V22.7438H17.98V17.3327H17.3787ZM6.88716 17.3327V22.7438H7.48578V17.3327H6.88716ZM13.5657 9.42044C13.6074 9.4829 13.6281 9.52194 13.6568 9.55317C13.8885 9.81868 14.1306 10.0763 14.3492 10.3522C14.5704 10.6333 14.7916 10.8832 15.2002 10.8025C15.2913 10.7842 15.3903 10.7895 15.484 10.8025C15.6115 10.8207 15.6479 10.7426 15.6687 10.6464C15.752 10.2403 15.8327 9.83428 15.916 9.42044H13.5683H13.5657ZM18.0372 11.4636H15.4787C16.2022 12.0986 16.9076 12.6661 17.7067 13.1658C17.8211 12.5749 17.9279 12.0258 18.0372 11.4636ZM7.11359 13.1449C7.94906 12.6608 8.64659 12.0804 9.35974 11.4583H6.80907C6.90797 12.0023 7.00167 12.5306 7.11359 13.1449ZM11.3092 9.42304H8.91727C9.01357 9.87591 9.10987 10.3132 9.20357 10.7557C9.47945 10.7557 9.73453 10.7608 9.98959 10.753C10.0521 10.753 10.1301 10.7166 10.1718 10.6724C10.5414 10.2741 10.9057 9.86811 11.3092 9.42304ZM21.1344 22.7411H22.9486V22.0254H21.1344V22.7411ZM3.68841 22.0254H1.91596V22.7385H3.68841V22.0254ZM15.9966 8.73592V6.96087H15.3668V8.73592H15.9966ZM13.3029 5.81567H11.5304V6.44292H13.3029V5.81567ZM12.116 5.15199C12.293 5.15199 12.4465 5.16499 12.5975 5.14678C12.6548 5.13897 12.751 5.06609 12.751 5.01924C12.7615 4.45445 12.7588 3.88966 12.7588 3.32748H12.116V5.15199Z" fill="black"/>
</g>
<defs>
<clipPath id="clip0_234_16768">
<rect width="24.375" height="24.375" fill="white" transform="translate(0.671875 0.0224609)"/>
</clipPath>
</defs>
</svg>
