<svg width="26" height="25" viewBox="0 0 26 25" fill="none" xmlns="http://www.w3.org/2000/svg">
<g clip-path="url(#clip0_234_16773)">
<path d="M8.30133 4.58589C8.96628 8.18266 9.601 11.7492 10.266 15.346C10.3264 15.7691 10.9309 15.5878 10.8402 15.1646C10.1753 11.5679 9.54055 8.00131 8.8756 4.40454C8.81515 4.01161 8.24088 4.16274 8.30133 4.58589Z" fill="black"/>
<path d="M19.7581 4.40454C19.0932 8.00131 18.4585 11.5679 17.7935 15.1646C17.7331 15.5878 18.3073 15.7389 18.3678 15.346C19.0327 11.7492 19.6675 8.18266 20.3324 4.58589C20.4231 4.16274 19.8488 4.01161 19.7581 4.40454Z" fill="black"/>
<path d="M7.03427 5.85594C8.45485 4.31446 10.3288 3.19614 12.3841 2.74276C14.4394 2.28939 16.6761 2.53119 18.6105 3.49839C19.7288 4.04244 20.7564 4.79806 21.6632 5.64436C21.9352 5.91639 22.3584 5.49324 22.0863 5.22121C20.424 3.64951 18.3384 2.41029 16.0414 2.01736C13.7443 1.62444 11.568 2.10804 9.6034 3.10546C8.48507 3.67974 7.45742 4.46559 6.61112 5.40256C6.3391 5.70481 6.76225 6.12796 7.03427 5.85594Z" fill="black"/>
<path d="M11.8665 2.56092C11.2922 2.56092 10.8086 2.07732 10.8086 1.50305V1.41237C10.8086 0.838092 11.2922 0.354492 11.8665 0.354492H16.7025C17.2767 0.354492 17.7603 0.838092 17.7603 1.41237V1.50305C17.7603 2.07732 17.2767 2.56092 16.7025 2.56092" stroke="black" stroke-width="0.610082" stroke-miterlimit="10"/>
<path d="M8.8441 14.56C10.5065 12.2025 12.4106 10.0565 14.4962 8.09189C14.7682 7.81986 14.345 7.39671 14.073 7.66874C11.927 9.66359 10.0229 11.87 8.33027 14.2578C8.08847 14.5903 8.63252 14.8925 8.8441 14.56Z" fill="black"/>
<path d="M20.2425 14.2578C18.5499 11.87 16.6155 9.66359 14.4998 7.66874C14.2277 7.39671 13.7744 7.81986 14.0766 8.09189C16.1621 10.0565 18.0663 12.2327 19.7287 14.56C19.9403 14.8925 20.4541 14.5903 20.2425 14.2578Z" fill="black"/>
<path d="M8.78418 6.09733C9.14688 6.24845 9.44913 6.09733 9.63048 5.79508C9.69093 5.67418 9.75138 5.4626 9.84206 5.37193C9.96296 5.28125 10.2048 5.43238 10.3861 5.37193C10.5977 5.31148 10.6884 5.0999 10.8395 4.94878C11.0813 4.70698 11.4742 4.8581 11.7765 4.79765C12.0183 4.7372 12.1392 4.58608 12.3508 4.4954C12.5926 4.3745 12.7134 4.64653 12.9855 4.70698C13.1668 4.7372 13.3482 4.67675 13.4993 4.55585C13.5598 4.4954 13.6202 4.3745 13.6807 4.34428C13.8318 4.22338 13.6504 4.28383 13.7411 4.31405C13.7713 4.31405 13.8318 4.40473 13.862 4.43495C14.2247 4.76743 14.6176 4.6163 15.0106 4.40473C15.1012 4.34428 15.1919 4.28383 15.3128 4.28383C15.4337 4.28383 15.2523 4.19315 15.343 4.28383L15.3733 4.40473C15.4337 4.6163 15.6151 4.79765 15.7964 4.88833C16.008 5.00923 16.28 5.00923 16.5218 4.94878C16.7938 4.91855 17.1565 4.70698 17.4285 4.82788C17.6401 4.91855 17.7308 5.13013 17.9424 5.19058C18.0028 5.2208 18.0935 5.2208 18.1539 5.25103C18.1842 5.25103 18.3051 5.31148 18.2446 5.28125C18.2144 5.25103 18.3655 5.43238 18.3958 5.4626C18.5469 5.61373 18.6678 5.67418 18.8491 5.73463C19.1212 5.8253 19.2723 5.79508 19.3327 6.12755C19.3932 6.52048 19.9977 6.33913 19.907 5.97643C19.8163 5.49283 19.5443 5.3417 19.0909 5.19058C18.7584 5.0999 18.6375 4.76743 18.3051 4.67675C18.033 4.6163 17.9424 4.43495 17.7308 4.31405C17.5192 4.19315 17.2472 4.16293 17.0054 4.22338C16.7636 4.28383 16.3707 4.46518 16.0987 4.34428C15.8871 4.2536 15.9475 3.98158 15.7964 3.83045C15.4337 3.46775 14.9501 3.80023 14.5874 3.95135C14.3456 4.07225 14.3154 3.92113 14.134 3.80023C13.9527 3.6491 13.7411 3.6491 13.5295 3.73978C13.4389 3.77 13.3482 3.83045 13.2877 3.8909C13.2877 3.92113 13.1366 4.10248 13.1366 4.10248C13.0762 4.10248 12.8948 3.92113 12.8344 3.8909C12.7135 3.83045 12.5623 3.80023 12.4414 3.80023C12.1996 3.80023 12.0787 3.95135 11.8974 4.07225C11.5951 4.28383 11.2324 4.1327 10.9 4.22338C10.7488 4.2536 10.6279 4.31405 10.507 4.40473C10.4163 4.4954 10.3559 4.64653 10.2652 4.70698C10.1443 4.79765 9.84206 4.64653 9.63048 4.76743C9.44913 4.8581 9.35846 5.03945 9.26778 5.19058C9.17711 5.37193 9.14688 5.55328 8.96553 5.49283C8.57261 5.37193 8.42148 5.9462 8.78418 6.09733Z" fill="black"/>
<path d="M8.30188 14.5906C8.54368 17.0388 10.2665 19.1243 12.624 19.7893C14.8304 20.424 17.188 19.6079 18.7597 17.9758C19.6362 17.0388 20.1198 15.86 20.3012 14.5906C20.3616 14.1977 19.7571 14.1977 19.6967 14.5906C19.4246 16.5854 18.1552 18.0665 16.3719 18.9128C14.3771 19.88 11.9893 19.3964 10.4479 17.8247C9.57133 16.9481 9.02728 15.8298 8.90638 14.5906C8.87615 14.2279 8.27165 14.2279 8.30188 14.5906Z" fill="black"/>
<path d="M13.8628 12.8984C13.1677 14.8932 12.4423 16.8881 11.7471 18.8829C11.6262 19.2456 12.2005 19.3968 12.3214 19.0341C13.0165 17.0392 13.7419 15.0444 14.4371 13.0495C14.5882 12.6868 13.9837 12.5357 13.8628 12.8984Z" fill="black"/>
<path d="M13.9538 13.0495C14.649 15.0444 15.3744 17.0392 16.0695 19.0341C16.1904 19.3968 16.7949 19.2456 16.6438 18.8829C15.9486 16.8881 15.2232 14.8932 14.5281 12.8984C14.4072 12.5357 13.8027 12.6868 13.9538 13.0495Z" fill="black"/>
<path d="M14.0771 13.9856C14.9536 14.6808 15.9208 15.2248 16.9787 15.5875C17.4925 15.7689 18.0365 15.8898 18.5806 15.9502C19.0642 16.0107 19.5478 16.0409 19.9709 15.7084C20.2732 15.4666 19.85 15.0132 19.5478 15.2853C19.2455 15.5573 18.6713 15.3759 18.3388 15.3155C17.8552 15.2248 17.4018 15.1039 16.9484 14.9528C16.0417 14.6203 15.2256 14.1669 14.47 13.5624C14.198 13.3206 13.7748 13.7438 14.0771 13.9856Z" fill="black"/>
<path d="M13.9852 13.4716C12.6553 14.6504 10.7511 15.8292 8.90739 15.0131C8.54469 14.862 8.24244 15.3758 8.60514 15.5269C10.7209 16.4639 12.8366 15.2851 14.4083 13.8948C14.7106 13.653 14.2874 13.2298 13.9852 13.4716Z" fill="black"/>
<path d="M10.1138 5.31059C10.3859 7.06364 10.7183 8.81669 11.1113 10.5697C11.2019 10.9627 11.7762 10.7813 11.6855 10.4186C11.2926 8.66556 10.9904 6.91251 10.6881 5.15946C10.6277 4.76654 10.0534 4.91766 10.1138 5.31059Z" fill="black"/>
<path d="M17.7639 5.09989C17.4919 6.94362 17.1594 8.78734 16.7362 10.6008C16.6456 10.9635 17.2198 11.1449 17.3105 10.7519C17.7337 8.93847 18.0661 7.09474 18.3382 5.25102C18.3986 4.85809 17.8243 4.70697 17.7639 5.09989Z" fill="black"/>
<path d="M4.06827 17.1591C4.34029 16.8568 4.70299 16.6452 5.12614 16.5546C5.57952 16.4639 6.00267 16.5546 6.39559 16.7057C7.21167 16.9777 8.08819 17.3404 8.93449 16.887C9.26697 16.7057 8.96472 16.1919 8.63224 16.3732C7.78594 16.8266 6.81874 16.1314 5.97244 15.9803C5.12614 15.8292 4.21939 16.1012 3.61489 16.7359C3.37309 17.0079 3.79624 17.4311 4.06827 17.1591Z" fill="black"/>
<path d="M19.4231 17.2504C20.209 16.4645 21.4482 17.4015 22.2341 17.7038C23.1106 18.0362 24.2591 17.9153 24.652 16.9179C24.8032 16.5552 24.1987 16.4041 24.0778 16.7668C23.9266 17.1597 23.4431 17.3108 23.0804 17.2806C22.5363 17.2504 22.0829 16.9481 21.5993 16.7366C20.7832 16.3739 19.7556 16.1018 19.0302 16.8272C18.7279 17.0993 19.1511 17.5224 19.4231 17.2504Z" fill="black"/>
<path d="M7.93634 21.784C8.75242 22.3885 9.81029 22.6605 10.838 22.5698C11.3518 22.5094 11.8052 22.3885 12.2888 22.1769C12.7724 21.9351 13.1955 21.6026 13.7093 21.391C14.9486 20.8168 16.1576 21.6328 17.3061 22.0258C18.2733 22.3582 19.3614 22.4187 20.1775 21.6933C20.4797 21.4213 20.0264 20.9981 19.7543 21.2701C18.908 22.0258 17.6688 21.5422 16.7621 21.1795C15.7949 20.7865 14.737 20.3634 13.6791 20.7563C12.7724 21.0888 12.0772 21.7537 11.11 21.9351C10.1428 22.1164 9.08489 21.8444 8.26882 21.2701C7.90612 21.0283 7.60387 21.5724 7.93634 21.784Z" fill="black"/>
<path d="M18.8225 19.5477C19.0643 19.185 19.6084 19.185 20.0013 19.3361C20.5151 19.5175 20.9383 19.8802 21.3916 20.1522C21.845 20.4242 22.3588 20.5753 22.9029 20.4847C23.4469 20.394 23.8399 20.0313 24.2026 19.6988C24.5048 19.457 24.0817 19.0036 23.7794 19.2757C23.3865 19.6384 22.9029 20.0011 22.3286 19.8802C21.7543 19.7593 21.301 19.3663 20.8174 19.0943C20.0315 18.6107 18.9132 18.3991 18.2785 19.2454C18.0669 19.5477 18.6109 19.8499 18.8225 19.5477Z" fill="black"/>
<path d="M2.22772 19.1539C2.28817 19.6677 2.74154 20.0002 3.19492 20.0909C3.79942 20.2118 4.34346 19.97 4.88751 19.7282C5.46179 19.4562 6.00584 19.2446 6.64057 19.2748C7.27529 19.305 7.87979 19.5166 8.36339 19.9095C8.66564 20.1513 8.96789 19.6073 8.66564 19.3957C7.78911 18.7308 6.61034 18.5192 5.55246 18.8214C4.97819 18.9726 4.49459 19.3353 3.92032 19.5166C3.49717 19.6375 2.86244 19.5771 2.77177 19.033C2.77177 18.6099 2.19749 18.7912 2.22772 19.1539Z" fill="black"/>
<path d="M12.8372 24.3221C13.744 23.9896 14.7414 23.9292 15.7086 24.171C16.0713 24.2616 16.2527 23.6874 15.8597 23.5967C14.8019 23.3549 13.6835 23.3851 12.6861 23.7478C12.535 23.8083 12.4443 23.9594 12.4745 24.1105C12.5048 24.2616 12.6559 24.3825 12.8372 24.3221Z" fill="black"/>
</g>
<defs>
<clipPath id="clip0_234_16773">
<rect width="24.375" height="24.375" fill="white" transform="translate(0.972656 0.0224609)"/>
</clipPath>
</defs>
</svg>
