<svg width="26" height="25" viewBox="0 0 26 25" fill="none" xmlns="http://www.w3.org/2000/svg">
<g clip-path="url(#clip0_234_16797)">
<path d="M22.3722 8.64121C22.254 7.88506 22.0059 7.18799 21.6279 6.52636C21.2851 5.93562 20.8244 5.43939 20.21 5.10857C19.4775 4.70686 18.6977 4.61235 17.8825 4.69506C17.7998 4.69506 17.7171 4.69506 17.6344 4.69506C18.2015 4.36424 18.7687 4.06886 19.3475 3.76168C19.4893 3.69079 19.6312 3.60809 19.7374 3.51357C19.8201 3.44268 19.8438 3.32453 19.9029 3.2182C20.1037 3.35998 20.3046 3.35998 20.529 3.27727C20.978 3.11186 21.4388 2.9819 21.8878 2.84012C22.1004 2.76924 22.2776 2.65109 22.3367 2.4266C22.384 2.23756 22.3722 2.02489 22.1831 1.89494C22.0768 1.82404 21.9705 1.75315 21.8523 1.71771C21.427 1.58774 20.9898 1.4696 20.5526 1.36327C20.3755 1.31601 20.1864 1.28056 19.9974 1.24512H19.0522C18.8867 1.28056 18.7214 1.32782 18.5559 1.36327C18.0951 1.4696 17.6816 1.65863 17.3035 1.94219C16.6065 2.47386 16.1693 3.18275 15.874 3.98616C15.8504 4.04524 15.8385 4.10431 15.8031 4.16339C15.7676 4.21065 15.7204 4.25791 15.6731 4.26972C15.6496 4.26972 15.5905 4.21065 15.5786 4.16339C15.4368 3.84439 15.3187 3.51357 15.1533 3.20638C14.7989 2.53294 14.279 2.00127 13.6056 1.64682C13.2511 1.45778 12.8612 1.33963 12.4595 1.30419C12.4005 1.30419 12.3414 1.26874 12.2705 1.24512H11.3489C11.3489 1.24512 11.2426 1.30419 11.1835 1.30419C10.7227 1.32782 10.2856 1.4696 9.86023 1.61138C9.65937 1.67045 9.45852 1.74134 9.2813 1.83586C9.06862 1.95401 9.00955 2.17848 9.05682 2.41479C9.09226 2.61564 9.21041 2.75742 9.42308 2.8283C9.86023 2.97009 10.3092 3.08824 10.7464 3.25365C11.0063 3.35998 11.2543 3.41905 11.5025 3.23001C11.5261 3.25365 11.5498 3.26545 11.5498 3.28909C11.5852 3.51357 11.7388 3.64353 11.9397 3.74986C12.5067 4.04524 13.0857 4.34061 13.6528 4.6478C13.6882 4.67142 13.7236 4.70687 13.7827 4.75413C13.5819 4.7305 13.4047 4.70687 13.2393 4.70687C12.9202 4.70687 12.6013 4.7305 12.2941 4.76594C11.6797 4.83683 11.1362 5.09676 10.6755 5.48665C10.0493 6.01832 9.62393 6.69177 9.364 7.45973C9.21041 7.92051 9.09226 8.40492 8.98592 8.88933C8.93867 9.07836 9.02137 9.26741 9.17496 9.39736C9.34037 9.52733 9.55303 9.58641 9.73026 9.46826C9.93111 9.35011 10.0965 9.17288 10.2856 9.01929C10.451 8.88933 10.6045 8.75936 10.77 8.61759C11.0181 8.39311 11.3725 8.25133 11.3252 7.80236C11.5734 7.93233 11.7624 7.86144 11.9633 7.73147C12.7313 7.22344 13.5228 6.77447 14.3499 6.37277C14.3853 6.36095 14.4326 6.33732 14.468 6.34913C14.6216 6.39639 14.7634 6.45547 14.9288 6.51454C14.9169 6.86899 14.8933 7.22344 14.8815 7.5897C14.8815 7.89688 14.8579 8.20407 14.8461 8.49944C14.8461 8.66485 14.8343 8.81844 14.8107 8.98385C14.7752 9.38556 14.728 9.79906 14.6925 10.2008C14.6689 10.4371 14.6571 10.6733 14.6334 10.9097C14.598 11.1932 14.5625 11.4767 14.5152 11.7604C14.6689 11.7722 14.8225 11.7604 14.976 11.7604C15.0351 11.2287 15.0942 10.697 15.1533 10.1654C15.5196 10.248 15.8858 10.3189 16.2757 10.4134V11.7367C16.4293 11.7367 16.571 11.7604 16.7247 11.784C16.7247 11.784 16.7247 11.784 16.7365 11.784C16.7365 11.1341 16.7247 10.4962 16.7129 9.84634C16.7129 9.77546 16.7129 9.70456 16.7129 9.63367C16.7129 9.51552 16.7129 9.39737 16.6538 9.29103C16.6065 9.17289 16.4647 9.1847 16.3702 9.20833C16.2757 9.23196 16.2166 9.39737 16.2402 9.5037C16.2639 9.63367 16.2639 9.77546 16.2757 9.90543C16.2284 9.90543 16.2048 9.90543 16.193 9.90543C15.8858 9.84634 15.5668 9.77546 15.2596 9.71636C15.236 9.71636 15.2006 9.6573 15.2006 9.62185C15.2006 9.51552 15.2242 9.421 15.2242 9.31467C15.2478 8.94841 15.2596 8.57033 15.2832 8.20407C15.2832 8.12136 15.295 8.03866 15.425 8.02685C15.5314 8.02685 15.6377 7.97959 15.744 7.94414C15.8858 7.9087 16.0276 7.87326 16.1575 7.8378C16.1812 8.05047 16.1812 8.21588 16.2048 8.39311C16.2048 8.45218 16.2757 8.5467 16.323 8.55851C16.3939 8.57033 16.5001 8.55851 16.5592 8.51126C16.6774 8.44036 16.6183 8.33403 16.6065 8.2277C16.5947 8.00321 16.5829 7.76692 16.571 7.54244C16.571 7.38885 16.5474 7.23524 16.5356 7.09347C16.512 6.89262 16.4883 6.69177 16.4765 6.50273C16.5947 6.46729 16.6892 6.44365 16.7719 6.40821C16.9018 6.34913 17.02 6.34913 17.1382 6.42003C17.3154 6.52636 17.5044 6.60906 17.6816 6.71539C18.166 6.99895 18.6505 7.28251 19.1467 7.55425C19.4302 7.70785 19.6783 8.00321 20.0683 7.79055C20.0447 8.06229 20.1628 8.23951 20.3282 8.38129C20.7181 8.71211 21.108 9.04292 21.4979 9.37374C21.6515 9.5037 21.8287 9.52733 22.0059 9.48007C22.1831 9.43282 22.3485 9.31466 22.3722 9.11382C22.3958 8.96021 22.3722 8.80662 22.3485 8.65303L22.3722 8.64121ZM12.6249 6.75083C12.4005 6.54998 12.1641 6.33732 11.9278 6.12465C11.8451 6.04195 11.6443 6.01832 11.5852 6.07739C11.4789 6.18373 11.4907 6.30188 11.6207 6.43183C11.8215 6.62088 12.0224 6.7981 12.235 6.99895C12.046 7.1171 11.8569 7.24706 11.6679 7.35339C11.5852 7.40065 11.5025 7.38885 11.4198 7.32977C11.3016 7.24706 11.1953 7.15254 11.0299 7.16436C10.8763 7.17618 10.7109 7.35339 10.77 7.48336C10.9353 7.82599 10.7818 8.01503 10.5219 8.20407C10.2029 8.44036 9.9193 8.72392 9.61211 8.98385C9.57667 9.01929 9.50578 9.01929 9.45852 9.03111C9.45852 8.98385 9.42308 8.92477 9.43489 8.87751C9.51759 8.49944 9.6003 8.12136 9.71844 7.75511C9.94293 7.05803 10.2856 6.43183 10.8291 5.91198C11.2426 5.52209 11.7388 5.27398 12.2941 5.17947C12.6249 5.13221 12.9557 5.12039 13.2865 5.12039C13.4638 5.12039 13.641 5.15583 13.7827 5.17947C13.8773 5.47483 13.96 5.73476 14.0427 5.99469C13.5938 6.23098 13.1211 6.4791 12.6367 6.73903L12.6249 6.75083ZM14.0899 4.37606C13.7709 4.19883 13.4638 4.02161 13.1448 3.83257C13.1211 3.82076 13.0975 3.74986 13.1093 3.71442C13.1566 3.39542 13.2157 3.08824 13.2629 2.78104C13.2865 2.67471 13.2275 2.59201 13.1211 2.58019C13.003 2.55656 12.873 2.55656 12.8494 2.72197C12.8022 2.97009 12.7549 3.20638 12.7076 3.4545C12.7076 3.50175 12.684 3.54901 12.6722 3.59627C12.5067 3.51357 12.3414 3.41905 12.1759 3.35997C11.9278 3.26545 11.9515 3.17094 11.9751 2.92283C11.9869 2.76923 11.9397 2.65109 11.7978 2.58019C11.656 2.52112 11.5261 2.55656 11.4316 2.67471C11.3843 2.73379 11.3371 2.78104 11.278 2.84012C11.2072 2.91101 11.1363 2.91101 11.0417 2.87557C10.5809 2.72197 10.1202 2.58019 9.67118 2.4266C9.61211 2.40297 9.50577 2.4266 9.50577 2.30845C9.50577 2.20212 9.57667 2.1903 9.65937 2.16668C10.0847 2.04853 10.4982 1.88312 10.9235 1.80042C11.2898 1.72953 11.6797 1.72953 12.0577 1.72953C12.7549 1.72953 13.3692 1.94219 13.9246 2.37934C14.4444 2.79286 14.8933 3.51357 15.0824 4.05706C14.7752 4.11612 14.468 4.16339 14.2317 4.39968C14.2081 4.42332 14.1372 4.4115 14.1017 4.39968L14.0899 4.37606ZM14.4444 5.74658C14.2081 5.46302 14.2199 5.08494 14.4444 4.78957C14.6452 4.52965 15.0115 4.45876 15.3777 4.60053C15.106 5.0495 15.106 5.49847 15.3777 5.94742C14.976 6.11283 14.6571 6.0065 14.4562 5.75839L14.4444 5.74658ZM16.0276 7.40065C15.8031 7.47155 15.5668 7.5188 15.3423 7.57788C15.3423 7.22344 15.3423 6.86899 15.3423 6.52636C15.3423 6.4791 15.4132 6.42003 15.4605 6.37277C15.6496 6.21917 15.8267 6.31369 16.004 6.40821C16.0276 6.40821 16.0513 6.44365 16.0513 6.46729C16.0748 6.73903 16.0984 7.01077 16.1102 7.28251C16.1102 7.31795 16.063 7.37703 16.0276 7.38885V7.40065ZM16.3584 6.0065C15.9449 6.04195 15.6141 5.62842 15.6141 5.27398C15.6141 4.88409 15.9331 4.52965 16.2993 4.51783C16.8192 4.50601 17.1146 4.84865 17.1264 5.25035C17.1264 5.6875 16.7719 6.03013 16.3584 5.99469V6.0065ZM17.1855 4.38786C16.9373 4.1752 16.6538 4.06886 16.3111 4.06886C16.4883 3.61991 16.701 3.20638 16.9964 2.85194C17.3035 2.47386 17.6698 2.15486 18.1306 1.96582C18.485 1.81223 18.8514 1.70589 19.2413 1.70589C19.5602 1.70589 19.8792 1.70589 20.1982 1.74134C20.7654 1.81223 21.3088 1.96582 21.8405 2.1903C21.8641 2.20212 21.8996 2.26119 21.8996 2.28482C21.8878 2.32027 21.8523 2.37934 21.805 2.39116C21.4506 2.5093 21.108 2.61564 20.7535 2.72197C20.6117 2.76923 20.47 2.8283 20.3164 2.86375C20.21 2.88738 20.1273 2.86375 20.0565 2.76923C19.9974 2.69834 19.9383 2.62745 19.8556 2.58019C19.7492 2.52112 19.6312 2.53294 19.5366 2.60383C19.4302 2.68653 19.383 2.80468 19.4184 2.94645C19.4775 3.19457 19.4539 3.24183 19.2294 3.34816C19.0994 3.40724 18.9576 3.46631 18.8277 3.5372C18.7332 3.58445 18.7096 3.54901 18.6977 3.46631C18.6505 3.2182 18.6032 2.9819 18.5559 2.73379C18.5205 2.59201 18.426 2.54475 18.2724 2.58019C18.166 2.60383 18.1188 2.68653 18.1424 2.79286C18.1779 3.05279 18.2251 3.3009 18.2724 3.56083C18.2842 3.64353 18.296 3.71442 18.3197 3.79712C17.9771 3.99798 17.6344 4.19883 17.2799 4.39968C17.2564 4.4115 17.2091 4.42332 17.1855 4.39968V4.38786ZM21.9232 9.01929C21.9232 9.01929 21.8287 9.01929 21.7932 8.99567C21.6042 8.83026 21.4151 8.65303 21.2262 8.48762C21.0371 8.33403 20.8599 8.16862 20.659 8.02685C20.5526 7.94414 20.5054 7.87326 20.5526 7.74329C20.5763 7.68421 20.5763 7.61333 20.5999 7.56606C20.659 7.4361 20.6117 7.31795 20.529 7.23525C20.4346 7.14073 20.2337 7.14073 20.1273 7.21162C20.08 7.24706 20.0329 7.29432 19.9738 7.32977C19.8792 7.38885 19.7965 7.41247 19.6901 7.34159C19.5248 7.22344 19.3475 7.1171 19.1704 6.99895C19.3239 6.85718 19.4657 6.71539 19.6075 6.58544C19.6666 6.52636 19.7374 6.4791 19.8083 6.40821C19.9265 6.29006 19.9265 6.17191 19.832 6.07739C19.761 6.01832 19.5721 6.03013 19.5012 6.10103C19.2649 6.31369 19.0167 6.53817 18.7805 6.75083C18.3079 6.50273 17.8352 6.2428 17.3863 6.0065C17.469 5.73476 17.5517 5.47483 17.6344 5.17947C18.0007 5.13221 18.4142 5.10857 18.8277 5.14402C19.3357 5.19127 19.8083 5.34488 20.2218 5.62842C20.8599 6.05376 21.2734 6.65632 21.5451 7.35339C21.7223 7.80236 21.8287 8.27495 21.9705 8.73574C21.9823 8.79482 22.0059 8.85388 21.9941 8.91296C21.9941 8.94841 21.9587 9.00748 21.9232 9.01929Z" fill="black"/>
<path d="M6.90479 11.5355C7.04656 11.3229 7.18835 11.3229 7.37738 11.5355C7.37738 11.5355 7.40101 11.5592 7.41282 11.571H8.9015C8.9015 11.571 8.92512 11.5474 8.93694 11.5355C9.07872 11.3229 9.2205 11.3229 9.40953 11.5355C9.40953 11.5355 9.43317 11.5592 9.44499 11.571C9.9412 11.571 10.4374 11.571 10.9337 11.571C10.9337 11.571 10.9572 11.5474 10.9572 11.5355C11.1581 11.3111 11.2409 11.3111 11.4298 11.5355C11.4298 11.5355 11.4535 11.5592 11.4653 11.571C11.9615 11.571 12.4578 11.571 12.954 11.571C12.954 11.571 12.9776 11.5474 12.9894 11.5355C13.1903 11.3111 13.3203 11.3111 13.462 11.5355C13.462 11.5355 13.4856 11.5592 13.4975 11.571H14.9861C14.9861 11.571 15.0097 11.5474 15.0216 11.5355C15.2225 11.3111 15.3525 11.3111 15.4942 11.5355C15.4942 11.5355 15.5178 11.5592 15.5296 11.571C15.8722 11.571 16.2149 11.571 16.5576 11.571C16.782 11.571 16.8647 11.6537 16.8647 11.8782C16.8647 12.02 16.8647 12.15 16.8647 12.3035C17.2074 12.3035 17.5382 12.3035 17.8689 12.3035C18.058 12.3035 18.1761 12.3744 18.2234 12.5635C18.4007 13.3078 18.5896 14.0403 18.7669 14.7846C18.8142 14.9619 18.7196 15.1154 18.5306 15.1391C18.3888 15.1627 18.2352 15.1391 18.0817 15.1391V17.4076C18.9678 17.4076 19.842 17.4076 20.7282 17.4076C20.87 17.4076 20.9762 17.3839 20.9999 17.2185C21.0235 17.0295 20.8936 16.9822 20.7518 16.9468C20.4801 16.8995 20.2555 16.7223 20.2319 16.5096C20.2083 16.2261 20.2555 15.9661 20.5155 15.7889C20.7518 15.6235 20.9881 15.5999 21.2717 15.6471C21.7796 15.7299 22.1696 15.9897 22.4295 16.4269C22.6658 16.8404 22.7131 17.2894 22.6421 17.762C22.5713 18.3173 22.4059 18.8371 22.146 19.3216C22.0751 19.4633 21.9924 19.5933 21.9096 19.7233L21.9333 19.7824C22.1224 19.7469 22.3113 19.7351 22.4768 19.6524C22.654 19.5696 22.7958 19.5578 22.9258 19.6996C22.9258 19.7705 22.9258 19.8532 22.9258 19.9241C22.8312 19.9832 22.7485 20.0659 22.654 20.1132C22.1813 20.3612 21.7325 20.2549 21.2835 20.0186C21.1417 19.9477 20.9881 19.9123 20.8345 19.8886C20.551 19.8532 20.3146 20.0186 20.0666 20.125C19.653 20.3021 19.2277 20.2903 18.8378 20.0541C18.4834 19.8414 18.1053 19.7942 17.7509 20.0186C17.231 20.3258 16.7347 20.2903 16.2149 20.0186C16.0731 19.9477 15.9077 19.9004 15.7423 19.8768C15.4587 19.8296 15.2343 20.0068 14.9979 20.1132C14.5726 20.2903 14.1591 20.2785 13.7692 20.0541C13.3557 19.8178 12.9658 19.8296 12.5641 20.0541C12.4105 20.1368 12.2214 20.1841 12.0443 20.2077C11.6898 20.2667 11.3708 20.1486 11.0636 19.9713C10.7446 19.7942 10.4374 19.8296 10.1302 20.0068C9.64584 20.2785 9.13779 20.314 8.65338 20.0423C8.25168 19.806 7.88542 19.8414 7.49553 20.0423C7.31831 20.1368 7.10564 20.1841 6.90479 20.2195C6.56215 20.2785 6.26679 20.1368 5.97141 19.9713C5.66423 19.806 5.34523 19.8414 5.04985 20.0068C4.53 20.3021 4.02196 20.3376 3.50211 20.0068C3.36033 19.9123 3.40759 19.7942 3.41941 19.6878C3.41941 19.6405 3.54937 19.5933 3.62026 19.5815C3.67933 19.5696 3.75021 19.6051 3.82111 19.6169C3.82111 19.6169 3.84474 19.6287 3.84474 19.6405V19.6169C3.84474 19.546 3.84474 19.4751 3.84474 19.4043C3.84474 17.1594 3.84474 14.9264 3.84474 12.6816C3.84474 12.3626 3.92744 12.2799 4.25826 12.2799C4.63633 12.2799 5.01441 12.2799 5.41611 12.2799C5.41611 12.15 5.41611 12.0318 5.41611 11.9018C5.41611 11.6064 5.47518 11.5474 5.78238 11.5355C6.14864 11.5355 6.50308 11.5355 6.86934 11.5355C6.86934 11.5355 6.89297 11.5119 6.90479 11.5001V11.5355ZM7.33012 17.3839V15.8126L7.29468 15.7771H6.6803C6.6803 15.9897 6.6803 16.2025 6.6803 16.4151C6.6803 16.6395 6.60941 16.7222 6.38493 16.7222C6.03049 16.7222 5.67604 16.7222 5.32159 16.7222C5.12074 16.7222 5.01441 16.616 5.01441 16.4151C5.01441 16.2025 5.01441 16.0016 5.01441 15.7771H4.36459V17.4076H7.30649C7.30649 17.4076 7.33012 17.3839 7.34194 17.3721L7.33012 17.3839ZM7.87361 15.1391C7.87361 15.1391 7.84997 15.1627 7.83816 15.1745V17.4194H10.7446V15.1745C10.7446 15.1745 10.721 15.1509 10.7092 15.1391C9.76399 15.1391 8.81879 15.1391 7.88542 15.1391H7.87361ZM14.1473 17.4194V15.1509H11.2409V17.3958C11.2409 17.3958 11.2645 17.4194 11.2763 17.4312H14.1473V17.4194ZM4.38823 12.7997C4.38823 12.7997 4.36459 12.8234 4.35277 12.8352V13.9103C4.42367 13.9103 4.48274 13.9103 4.55362 13.9103C5.53426 13.9103 6.5149 13.9103 7.49553 13.9103C7.75546 13.9103 7.82635 13.9812 7.82635 14.2411C7.82635 14.3711 7.82635 14.4893 7.82635 14.631C11.2763 14.631 14.7262 14.631 18.1997 14.631C18.1526 14.4302 18.1171 14.2411 18.0699 14.0403C17.9871 13.6859 17.8926 13.3314 17.8099 12.977C17.7862 12.8588 17.7391 12.8234 17.6209 12.8234C17.3727 12.8234 17.1246 12.8234 16.8529 12.8234C16.8529 12.9416 16.8529 13.0596 16.8529 13.1778C16.8529 13.3905 16.7702 13.4732 16.5576 13.4732C16.4985 13.4732 16.4394 13.4732 16.3803 13.4732C12.8713 13.4732 9.36228 13.4732 5.84145 13.4732C5.51064 13.4732 5.38067 13.4259 5.4043 13.036C5.4043 12.9652 5.4043 12.8825 5.4043 12.8116C5.4043 12.8116 5.38067 12.7879 5.36885 12.7761H4.37641L4.38823 12.7997ZM21.0944 16.5569C21.3662 16.675 21.5434 17.0649 21.4725 17.3839C21.4134 17.6675 21.118 17.9037 20.8227 17.9155C20.74 17.9155 20.6573 17.9155 20.5746 17.9155C15.2343 17.9155 9.89394 17.9155 4.55362 17.9155H4.34096V19.7705C4.43548 19.7469 4.53 19.7233 4.6127 19.6878C4.89626 19.546 5.17982 19.3925 5.52244 19.4043C5.82964 19.4043 6.10138 19.4987 6.3613 19.6524C6.66849 19.8296 6.96386 19.8178 7.24741 19.6524C7.7909 19.3334 8.31076 19.3098 8.85424 19.6287C9.14961 19.806 9.46861 19.8178 9.77579 19.6405C10.3547 19.3098 10.9101 19.3216 11.4889 19.676C11.7725 19.8414 12.1034 19.7824 12.4105 19.6051C12.895 19.3216 13.3911 19.3216 13.8874 19.6051C14.2181 19.7942 14.5608 19.8178 14.8917 19.6287C15.4233 19.3216 15.9431 19.3216 16.4748 19.6287C16.8056 19.8178 17.1483 19.806 17.4791 19.6051C17.9989 19.2979 18.5188 19.3216 19.0268 19.6287C19.3341 19.806 19.6294 19.8296 19.9484 19.6405C20.3619 19.3925 20.8109 19.3097 21.2717 19.4869C21.3898 19.5342 21.4488 19.4869 21.5079 19.4161C21.8151 18.9199 22.0515 18.4 22.1105 17.8093C22.1342 17.5375 22.1578 17.2421 22.1105 16.9704C21.9924 16.4624 21.5316 16.1197 21.0117 16.1079C20.8109 16.1079 20.6927 16.2378 20.7163 16.4387C20.8463 16.4742 20.9762 16.4978 21.0826 16.5451L21.0944 16.5569ZM9.39772 12.0672C9.39772 12.1736 9.39772 12.268 9.39772 12.3744C9.39772 12.5044 9.3032 12.6108 9.17324 12.5989C9.05509 12.5989 8.92512 12.5398 8.93694 12.3626C8.93694 12.268 8.93694 12.1736 8.93694 12.0672H7.36556C7.36556 12.1736 7.36556 12.268 7.36556 12.3744C7.36556 12.5044 7.27105 12.5989 7.14108 12.5989C7.01112 12.5989 6.89297 12.5398 6.90479 12.3626C6.90479 12.268 6.90479 12.1736 6.90479 12.0672H5.91234V12.9888C9.38591 12.9888 12.8595 12.9888 16.333 12.9888V12.0791H15.5178C15.4824 12.4689 15.4114 12.6225 15.2461 12.5989C14.9153 12.5517 15.0334 12.2799 14.9979 12.0672H13.5211C13.462 12.2326 13.4147 12.398 13.3557 12.5398C13.3439 12.5753 13.2612 12.5989 13.2021 12.5989C13.0485 12.5989 12.9894 12.4689 12.9658 12.0791H11.4535C11.4298 12.4571 11.3589 12.6225 11.1818 12.5989C10.851 12.5517 10.9691 12.2799 10.9337 12.0672H9.37409H9.39772ZM14.6553 17.4076H17.5618V15.1391H14.6553V17.4076ZM4.35277 15.2336H7.31831V14.3947H4.35277V15.2336ZM5.49882 16.2143H6.17226V15.7771H5.49882V16.2143Z" fill="black"/>
<path d="M19.8751 20.9402C19.7569 20.9993 19.627 21.0111 19.497 21.0347C19.3552 21.0584 19.2135 21.0347 19.0835 20.9756C19.1189 20.9875 19.1544 20.9993 19.1898 21.0111C19.1071 20.9756 19.0125 20.9402 18.9298 20.893C18.8472 20.8457 18.7527 20.7867 18.6699 20.7512C18.221 20.5976 17.7838 20.6685 17.3703 20.9166C17.0631 21.1056 16.7559 21.082 16.4488 20.9048C15.9407 20.6094 15.4208 20.5858 14.901 20.8812C14.5702 21.0702 14.2275 21.0938 13.8967 20.9048C13.365 20.5976 12.8453 20.5976 12.3136 20.9048C11.9828 21.1056 11.6401 21.082 11.3092 20.8812C10.8131 20.5976 10.3168 20.5858 9.83243 20.8812C9.52524 21.0584 9.19443 21.1175 8.91087 20.952C8.33194 20.5976 7.77664 20.5976 7.19772 20.9166C6.89052 21.0938 6.57152 21.082 6.27616 20.9048C5.73267 20.5858 5.201 20.6094 4.66934 20.9284C4.38578 21.0938 4.07859 21.1056 3.78322 20.9284C3.52329 20.7748 3.25155 20.6803 2.94437 20.6803C2.58991 20.6803 2.31817 20.893 1.98736 20.9756C1.83376 21.0229 1.64473 21.0465 1.49113 21.0111C1.33754 20.9756 1.19576 20.8457 1.04217 20.8812C0.959466 20.893 0.841318 20.9402 0.841318 20.9875C0.829503 21.0938 0.770429 21.212 0.924022 21.3065C1.44388 21.6373 1.95191 21.6137 2.47177 21.3065C2.76714 21.1411 3.08614 21.1056 3.39332 21.2711C3.6887 21.4364 3.98407 21.5664 4.3267 21.5192C4.52755 21.4837 4.74022 21.4364 4.91744 21.3419C5.30734 21.1529 5.6736 21.1056 6.07531 21.3419C6.5479 21.6255 7.05593 21.5901 7.55216 21.3065C7.85934 21.1293 8.16653 21.0938 8.48553 21.2711C8.79272 21.4364 9.11172 21.5664 9.46617 21.5073C9.64339 21.4837 9.83243 21.4364 9.98602 21.3537C10.3995 21.1175 10.7895 21.1056 11.1912 21.3537C11.5811 21.5901 12.0064 21.6019 12.4199 21.4128C12.6562 21.3065 12.8806 21.1411 13.1642 21.1765C13.3296 21.2002 13.495 21.2475 13.6368 21.3183C14.1566 21.5783 14.6529 21.6255 15.1728 21.3183C15.5272 21.1056 15.9053 21.1411 16.2597 21.3537C16.6614 21.5901 17.0749 21.6019 17.4885 21.4246C17.7365 21.3183 17.9611 21.1411 18.2564 21.1884C18.41 21.212 18.5754 21.2475 18.7054 21.3183C19.1544 21.5428 19.6033 21.661 20.076 21.4128C20.1704 21.3655 20.2531 21.2829 20.3477 21.2238V20.9993C20.2058 20.8576 20.076 20.8694 19.8987 20.952L19.8751 20.9402Z" fill="black"/>
<path d="M24.6759 22.3465C24.5577 22.4056 24.4277 22.4174 24.2978 22.4411C24.156 22.4647 24.0142 22.4411 23.8843 22.382C23.9197 22.3938 23.9551 22.4056 23.9905 22.4174C23.9079 22.382 23.8134 22.3465 23.7306 22.2993C23.6479 22.252 23.5534 22.1929 23.4708 22.1575C23.0218 22.0039 22.5846 22.0748 22.1711 22.3229C21.8639 22.5119 21.5567 22.4884 21.2495 22.3111C20.7414 22.0157 20.2217 21.9921 19.7018 22.2874C19.371 22.4765 19.0284 22.5002 18.6976 22.3111C18.1659 22.0039 17.646 22.0039 17.1144 22.3111C16.7835 22.5119 16.4409 22.4883 16.1101 22.2874C15.6138 22.0039 15.1176 21.9921 14.6332 22.2874C14.326 22.4647 13.9952 22.5237 13.7117 22.3584C13.1327 22.0039 12.5774 22.0039 11.9985 22.3229C11.6913 22.5002 11.3723 22.4884 11.077 22.3111C10.5335 21.9921 10.0018 22.0157 9.47012 22.3347C9.18656 22.5002 8.87937 22.5119 8.584 22.3347C8.32407 22.1811 8.05233 22.0866 7.74515 22.0866C7.39071 22.0866 7.11896 22.2993 6.78815 22.382C6.63455 22.4293 6.44551 22.4529 6.29192 22.4174C6.13833 22.382 5.99654 22.252 5.84295 22.2874C5.76025 22.2993 5.6421 22.3465 5.6421 22.3938C5.63028 22.5002 5.57121 22.6182 5.7248 22.7128C6.24466 23.0436 6.75269 23.02 7.27256 22.7128C7.56792 22.5473 7.88692 22.5119 8.19412 22.6773C8.48948 22.8428 8.78486 22.9727 9.12748 22.9254C9.32833 22.8901 9.54101 22.8428 9.71823 22.7482C10.1081 22.5592 10.4744 22.5119 10.8761 22.7482C11.3487 23.0318 11.8568 22.9963 12.3529 22.7128C12.6602 22.5355 12.9673 22.5002 13.2863 22.6773C13.5935 22.8428 13.9125 22.9727 14.267 22.9136C14.4442 22.8901 14.6332 22.8428 14.7868 22.7601C15.2003 22.5237 15.5902 22.5119 15.9919 22.7601C16.3818 22.9963 16.8071 23.0081 17.2206 22.8191C17.457 22.7128 17.6814 22.5473 17.965 22.5828C18.1304 22.6064 18.2959 22.6537 18.4376 22.7246C18.9575 22.9845 19.4537 23.0318 19.9735 22.7246C20.3279 22.5119 20.7061 22.5473 21.0605 22.7601C21.4622 22.9963 21.8758 23.0081 22.2893 22.831C22.5373 22.7246 22.7618 22.5473 23.0572 22.5946C23.2108 22.6182 23.3762 22.6537 23.5062 22.7246C23.9551 22.949 24.4041 23.0672 24.8767 22.8191C24.9712 22.7719 25.0539 22.6892 25.1484 22.6301V22.4056C25.0067 22.2638 24.8767 22.2756 24.6995 22.3584L24.6759 22.3465Z" fill="black"/>
<path d="M16.912 16.3562C16.912 16.5689 16.912 16.7934 16.912 17.0061C16.912 17.1714 16.8175 17.2542 16.6639 17.266C16.2858 17.266 15.9195 17.266 15.5415 17.266C15.3643 17.266 15.2461 17.1596 15.2461 16.9825C15.2461 16.5571 15.2461 16.1436 15.2461 15.7183C15.2461 15.5174 15.3407 15.4229 15.5296 15.4229C15.8959 15.4229 16.2621 15.4229 16.6402 15.4229C16.8529 15.4229 16.912 15.4937 16.9238 15.7064C16.9238 15.9191 16.9238 16.1436 16.9238 16.3562H16.912ZM16.4158 16.7579V15.9309H15.7542V16.7579H16.4158Z" fill="black"/>
<path d="M13.5215 16.3326C13.5215 16.5571 13.5215 16.7934 13.5215 17.0179C13.5215 17.1833 13.4388 17.266 13.2616 17.266C12.8953 17.266 12.5409 17.266 12.1746 17.266C11.9501 17.266 11.8556 17.1714 11.8438 16.947C11.8438 16.5335 11.8438 16.12 11.8438 15.7064C11.8438 15.5292 11.9619 15.4229 12.1274 15.4229C12.5054 15.4229 12.8835 15.4229 13.2498 15.4229C13.4506 15.4229 13.5097 15.4819 13.5215 15.6946C13.5215 15.9072 13.5215 16.12 13.5215 16.3208V16.3326ZM12.3754 15.9427V16.7697H13.0489V15.9427H12.3754Z" fill="black"/>
<path d="M10.0371 16.3445C10.0371 16.5689 10.0371 16.7934 10.0371 17.0061C10.0371 17.1597 9.94257 17.2424 9.78897 17.2542C9.41089 17.2542 9.02101 17.2542 8.64293 17.2542C8.47753 17.2542 8.35938 17.1361 8.35938 16.9706C8.35938 16.5453 8.35938 16.12 8.35938 15.6947C8.35938 15.5056 8.45389 15.4111 8.64293 15.4111C9.02101 15.4111 9.38727 15.4111 9.76534 15.4111C9.96619 15.4111 10.0371 15.482 10.0371 15.6829C10.0371 15.8955 10.0371 16.12 10.0371 16.3327V16.3445ZM9.54086 15.9309H8.86742V16.7462H9.54086V15.9309Z" fill="black"/>
</g>
<defs>
<clipPath id="clip0_234_16797">
<rect width="24.375" height="24.375" fill="white" transform="translate(0.773438 0.0224609)"/>
</clipPath>
</defs>
</svg>
