<svg width="25" height="25" viewBox="0 0 25 25" fill="none" xmlns="http://www.w3.org/2000/svg">
<g clip-path="url(#clip0_234_14105)">
<path d="M24.1043 22.7905H23.8592C23.7245 22.7415 23.6388 22.6925 23.602 22.6313C23.5285 22.5088 23.4673 22.3864 23.4061 22.2638C23.357 22.1536 23.2958 22.0312 23.2346 21.9209C23.0631 21.6269 22.8549 21.3452 22.4629 21.3207C22.3036 21.3207 22.1567 21.3085 21.9975 21.2962C21.826 21.2962 21.6668 21.2839 21.4953 21.2717C21.3973 21.2717 21.287 21.2227 21.2258 21.1615C21.1278 21.0635 21.0298 20.9532 20.9441 20.843L20.3316 20.1448C19.8907 19.6549 19.462 19.1527 19.021 18.6627C18.8128 18.4423 18.5311 18.3075 18.1514 18.2463C18.0534 18.234 17.9554 18.1483 17.9064 18.0381C17.6859 17.5726 17.4777 17.0949 17.294 16.6172C17.2449 16.4947 17.196 16.3845 17.1348 16.2865C17.0857 16.2865 17.049 16.2987 17 16.3109C16.804 16.3355 16.6203 16.36 16.4243 16.3723C16.5101 16.4703 16.5835 16.5927 16.657 16.7642L17.0368 17.6338L17.2082 18.1973H16.6081C16.4121 18.1973 16.2651 18.3197 16.2651 18.5035C16.2651 18.6383 16.4121 18.7975 16.5835 18.8098C16.7795 18.8098 16.9755 18.822 17.1714 18.822C17.3062 18.822 17.4409 18.822 17.6859 18.8098C18.2126 18.8098 18.6413 19.0547 19.0456 19.5937L18.9965 19.6917L18.9353 19.7284H14.8565C14.7707 19.7284 14.6605 19.6549 14.6115 19.5814C14.5135 19.4466 14.4278 19.3609 14.2686 19.3609C14.1338 19.3731 14.048 19.4589 13.9868 19.6426C13.9134 19.8509 13.8276 20.0591 13.7419 20.2796L13.5213 20.598L12.8477 18.822H15.0157C15.2484 18.822 15.3709 18.7117 15.3709 18.5157C15.3709 18.4177 15.3464 18.3443 15.2974 18.2953C15.2361 18.234 15.1382 18.2096 15.0034 18.2096H7.83796L7.5195 18.136L7.72773 17.6461C7.88696 17.2663 8.03395 16.899 8.21768 16.5437C8.26667 16.458 8.32791 16.3845 8.41365 16.3232C8.36466 16.3109 8.31567 16.2987 8.26667 16.2865C8.20543 16.2865 8.14418 16.2743 8.08294 16.262C7.9972 16.2497 7.89921 16.2252 7.80123 16.1885C7.78897 16.1885 7.76448 16.1885 7.75222 16.1885C7.73998 16.1885 7.72773 16.1885 7.71548 16.1885C7.67874 16.2375 7.65424 16.2987 7.61749 16.36C7.37252 16.9111 7.12754 17.4623 6.90706 18.0136C6.84582 18.1728 6.74784 18.2463 6.6131 18.2585C6.2089 18.3075 5.86593 18.4912 5.58421 18.8098L3.66116 21.0144C3.55093 21.1492 3.41619 21.2717 3.13447 21.2717H3.12222C3.03648 21.2717 2.95074 21.2595 2.85275 21.2595H2.48529C2.10558 21.2839 1.81161 21.4431 1.62788 21.7494C1.52989 21.9209 1.41966 22.0924 1.35841 22.2761C1.27267 22.5211 1.10119 22.8273 0.721476 22.8273C0.660233 22.8273 0.586741 22.8273 0.476503 22.8028C0.305021 22.8763 0.207031 22.9252 0.207031 23.0967C0.207031 23.3172 0.329518 23.4275 0.586741 23.4275H24.0063C24.2022 23.4275 24.4227 23.4275 24.5819 23.2805V23.0232C24.4962 22.8763 24.3738 22.8028 24.1164 22.8028L24.1043 22.7905ZM9.36906 22.6925L9.28331 22.7783H3.80814H1.92185L1.87286 22.6558V22.6068L1.94634 22.4476C1.99534 22.3128 2.05658 22.1781 2.14233 22.0678C2.24031 21.9454 2.43629 21.8841 2.55878 21.8841C2.99973 21.8841 3.44069 21.8841 3.88164 21.8841H9.06284L9.35681 21.9332V22.7048L9.36906 22.6925ZM9.67527 20.7572L9.44255 21.2472H4.32259L4.2736 21.1737L4.39609 21.0758L4.54307 20.892C4.66556 20.745 4.77579 20.598 4.89828 20.4633C4.94727 20.402 5.04526 20.3408 5.131 20.3408H7.40927H9.68752L9.77326 20.4265L9.63853 20.7572H9.67527ZM10.9001 22.3496C10.9001 22.4353 10.9001 22.5088 10.9001 22.5945L10.8512 22.7783H10.4837C10.3857 22.7783 10.2877 22.7783 10.1897 22.7783C10.1039 22.7783 10.006 22.668 9.99377 22.5823C9.92024 21.9454 10.0305 21.333 10.3245 20.7695L10.4102 20.6838H10.4592H10.4714C10.5082 20.7083 10.5572 20.745 10.5817 20.8063C10.7654 21.2105 10.9736 21.7371 10.8879 22.3496H10.9001ZM10.8021 19.6794C10.7164 19.4711 10.6306 19.3486 10.4469 19.3364C10.2754 19.3364 10.1775 19.4344 10.0795 19.7038H5.70669L5.62095 19.6549L5.71895 19.5691C5.95167 19.2507 6.19664 18.9199 6.63759 18.8342C6.74784 18.8098 6.85807 18.7975 6.96831 18.7975H11.7698L11.9046 18.871L11.1819 20.5735L10.8266 19.6794H10.8021ZM13.1907 22.2761C13.1907 22.4108 13.1907 22.5456 13.1907 22.6925L13.1049 22.7783L11.5371 22.6925C11.4146 21.8474 11.6963 21.0758 11.9535 20.5C12.0147 20.3653 12.0638 20.2305 12.1127 20.0836L12.2107 19.8264L12.3945 19.4222L12.8232 20.5368L12.9089 20.7695C12.958 20.9164 13.0069 21.0635 13.0681 21.1982C13.2396 21.5534 13.2152 21.9209 13.2029 22.2761H13.1907ZM14.6605 22.7905H14.489C14.489 22.7905 14.1338 22.7905 14.0358 22.7905C13.9623 22.7905 13.8399 22.7171 13.8276 22.6313C13.7541 21.9454 13.8766 21.2962 14.2563 20.696L14.3175 20.6592L14.3421 20.696C14.783 21.333 14.7707 22.0556 14.6727 22.7905H14.6605ZM15.1627 21.0144C15.126 20.8798 15.0647 20.745 15.0157 20.6103L14.9054 20.3408C14.9054 20.3408 18.5678 20.3408 19.4743 20.3408C19.5967 20.3408 19.7437 20.402 19.8295 20.4878C19.9642 20.6225 20.0867 20.7695 20.2214 20.9287L20.3929 21.2105L20.2949 21.2962L20.2704 21.235C20.2091 21.235 20.1602 21.235 20.1111 21.235H15.5179C15.3587 21.235 15.2361 21.1982 15.1749 21.0022L15.1627 21.0144ZM22.8426 22.7783H19.3395H15.4321L15.3464 22.6925V21.8718H18.6903C19.8049 21.8718 20.9196 21.8718 22.0464 21.8718C22.4016 21.8718 22.6099 22.0066 22.7323 22.3128L22.8794 22.6558L22.8426 22.7783Z" fill="#515151"/>
<path d="M13.9456 9.77032C14.0558 9.77032 14.1538 9.77032 14.264 9.77032C14.362 9.74582 14.46 9.73357 14.558 9.70907C14.558 9.70907 14.558 9.70907 14.5703 9.70907V9.68458C14.607 9.40285 14.4355 9.23137 14.2518 9.09664C14.1783 9.0354 14.1171 8.9619 14.0926 8.87617C14.0068 8.63119 13.9333 8.37397 13.8599 8.11674L13.7496 7.73704C13.5536 7.07561 13.3699 6.36518 13.4312 5.59351C13.4556 5.25055 13.4434 4.90759 13.4312 4.57688V4.3564C13.4189 3.90319 13.2229 3.56024 12.8677 3.3765C12.7085 3.29077 12.6595 3.20502 12.6595 3.03354C12.6595 2.59259 12.6595 2.13939 12.6595 1.69843C12.6595 1.42896 12.5737 1.35547 12.3165 1.35547C12.0838 1.35547 12.0471 1.37996 12.0471 1.68618C12.0471 2.12713 12.0471 2.58033 12.0471 3.02129C12.0471 3.19277 11.998 3.27851 11.8388 3.36425C11.4713 3.56024 11.2998 3.84195 11.2998 4.20941C11.2998 4.93209 11.2998 5.64251 11.2753 6.36518C11.2753 6.46317 11.2632 6.57341 11.2264 6.68365L11.1774 6.86738C11.0304 7.40632 10.8834 7.94526 10.7242 8.48421C10.6629 8.70469 10.5405 8.91291 10.4547 9.07214C10.4179 9.13338 10.369 9.19463 10.3199 9.24363C10.2587 9.31711 10.1852 9.37836 10.173 9.45185C10.1607 9.52534 10.1484 9.58658 10.1484 9.66008C10.3445 9.72132 10.5527 9.74582 10.7609 9.77032L10.7854 9.59884L13.9333 9.64783V9.75807L13.9456 9.77032ZM12.0226 3.98893C12.0838 3.91545 12.1572 3.8787 12.2675 3.8787H12.3655C12.4758 3.8787 12.5982 3.89095 12.6962 3.98893C12.8065 4.11142 12.8432 4.3319 12.7574 4.73611L11.9246 4.68711C11.8878 4.3319 11.9246 4.11142 12.0226 3.98893ZM12.7942 5.47103L12.7453 6.25494L11.9 6.20595V5.42204L12.7942 5.47103ZM11.2753 8.88842L11.3856 8.48421C11.5204 8.00651 11.6428 7.54105 11.7776 7.08785C11.802 7.01437 11.9123 6.94087 11.9858 6.94087C12.1083 6.94087 12.2307 6.94087 12.3655 6.94087C12.5002 6.94087 12.6227 6.94087 12.7574 6.94087C12.831 6.94087 12.9412 7.02661 12.9534 7.1001C13.1004 7.59005 13.2352 8.08 13.3821 8.56995L13.4312 8.94966L11.2876 8.88842H11.2753Z" fill="#515151"/>
<path d="M12.6408 10.5666C11.1219 10.5666 9.75009 10.444 8.58647 10.2848C4.83838 9.74587 2.37638 8.65573 2.35188 8.64349C2.24165 8.59449 2.19265 8.45976 2.24165 8.34952C2.29064 8.23928 2.42538 8.19029 2.53561 8.23928C2.63361 8.28828 12.2488 12.514 22.7827 8.15354C22.8929 8.10455 23.0277 8.15354 23.0767 8.27603C23.1256 8.38626 23.0767 8.521 22.9542 8.56999C19.2306 10.1133 15.6417 10.5788 12.6408 10.5788V10.5666Z" fill="#515151"/>
<path d="M5.81722 10.8357C5.80497 10.8357 5.78048 10.8357 5.75597 10.8479C5.73148 10.8479 5.71924 10.8602 5.69473 10.8725C5.67023 10.8725 5.63349 10.9091 5.60899 10.8969C5.58449 10.8969 5.56 10.8602 5.54775 10.8479C5.54775 10.8357 5.5355 10.8111 5.52325 10.799C5.52325 10.7745 5.49876 10.7499 5.4865 10.7377C5.46201 10.701 5.42526 10.6764 5.38852 10.6519C5.32728 10.6152 5.25378 10.6152 5.18029 10.6275C5.0823 10.6397 4.97206 10.6887 4.89857 10.7499C4.86182 10.7867 4.82507 10.8234 4.80058 10.8725C4.80058 10.8725 4.76383 10.9337 4.76383 10.8969C4.76383 10.8725 4.76383 10.8479 4.76383 10.8357C4.76383 10.7867 4.76383 10.7499 4.75159 10.701C4.73933 10.6397 4.71484 10.5662 4.65359 10.5295C4.6046 10.4927 4.53111 10.456 4.46986 10.4682C4.38412 10.4682 4.29838 10.5172 4.21265 10.5662C4.18814 10.5784 4.1514 10.603 4.13915 10.6275C4.12691 10.6519 4.16364 10.6519 4.18814 10.6519C4.18814 10.6519 4.18814 10.6519 4.20039 10.6519C4.21264 10.6519 4.22489 10.6519 4.24938 10.6642C4.28613 10.6642 4.31063 10.6887 4.33513 10.701C4.39638 10.7377 4.46986 10.7745 4.51886 10.8234C4.56786 10.8602 4.6046 10.9091 4.6291 10.9705C4.65359 11.0071 4.65359 11.0562 4.65359 11.1051V11.1541C4.67809 11.1786 4.69034 11.1297 4.70259 11.1174C4.71484 11.0806 4.72709 11.0562 4.75159 11.0317C4.78834 10.9705 4.83733 10.9214 4.88632 10.8602C4.91081 10.8357 4.93532 10.799 4.97206 10.7867C5.04555 10.7622 5.05781 10.8602 5.07005 10.9091C5.07005 10.9337 5.07005 10.9459 5.07005 10.9705C5.07005 10.9826 5.0823 11.0071 5.09454 11.0194C5.11905 11.0684 5.18029 11.0806 5.22928 11.0684C5.30277 11.0684 5.38852 11.0439 5.46201 11.0194C5.49876 11.0071 5.5355 10.9826 5.57225 10.9705C5.60899 10.9705 5.63349 10.9582 5.67023 10.9337C5.70698 10.9214 5.80497 10.8969 5.80497 10.8357H5.81722Z" fill="#515151"/>
<path d="M5.16506 10.1256C5.10381 10.0888 5.01806 10.0888 4.94458 10.1011C4.89558 10.1011 4.85884 10.1256 4.82209 10.15C4.76085 10.1868 4.67511 10.248 4.6996 10.346C4.7241 10.4073 4.79759 10.444 4.85884 10.4563C4.93232 10.4808 5.00582 10.4686 5.07931 10.444C5.1528 10.4195 5.23854 10.3706 5.26304 10.2971C5.28754 10.2236 5.2263 10.1623 5.16506 10.1256ZM5.12831 10.3706C5.12831 10.3706 5.04257 10.3951 4.99357 10.3828C4.94458 10.3706 4.90783 10.346 4.85884 10.3215C4.82209 10.3093 4.78534 10.2603 4.79759 10.2236C4.79759 10.1868 4.84658 10.1623 4.87108 10.1623C4.93232 10.1379 4.99357 10.1623 5.05481 10.1868C5.10381 10.2113 5.14055 10.2603 5.14055 10.3093C5.14055 10.3338 5.14055 10.3583 5.12831 10.3706Z" fill="#515151"/>
<path d="M5.63306 11.4488L5.44933 11.3998C5.44933 11.3998 5.35133 11.3998 5.32684 11.4365L5.2166 11.5468C5.2166 11.5468 5.19211 11.608 5.22885 11.608C5.27785 11.608 5.31459 11.608 5.31459 11.6693C5.31459 11.7182 5.30234 11.7672 5.29009 11.804C5.26559 11.8529 5.25335 11.9142 5.22885 11.9632C5.20435 12.0489 5.1676 12.1224 5.13086 12.2081C5.11861 12.2449 5.09412 12.2817 5.08186 12.3307C5.08186 12.3429 5.04512 12.5021 5.00838 12.4654C5.00838 12.4654 5.00838 12.4287 5.00838 12.4164C5.00838 12.3919 5.00838 12.3674 5.00838 12.3429C5.00838 12.2816 5.00838 12.2204 5.00838 12.1592C5.00838 12.1224 5.00838 12.098 5.00838 12.0735C5.00838 12.0367 5.00838 12.0122 5.00838 11.9755C5.00838 11.902 5.00838 11.8285 5.00838 11.755C5.00838 11.7182 5.00838 11.6814 5.00838 11.6448C5.00838 11.608 5.00838 11.5468 5.04511 11.5345C5.06962 11.5345 5.09412 11.5345 5.11861 11.4978L5.22885 11.3875C5.25335 11.363 5.25335 11.3262 5.2166 11.3262L4.65316 11.1915C4.65316 11.1915 4.55517 11.1915 4.53068 11.2283C4.53068 11.2283 4.42043 11.3262 4.42043 11.3385C4.38368 11.3753 4.42043 11.3875 4.44493 11.412C4.44493 11.412 4.45718 11.4242 4.44493 11.4488C4.44493 11.461 4.40819 11.4733 4.39594 11.4855C4.38369 11.4978 4.35919 11.51 4.34695 11.5222C4.32245 11.5345 4.29795 11.5468 4.27345 11.559C4.24895 11.5713 4.22446 11.5957 4.19996 11.608C4.18771 11.608 4.16322 11.6325 4.15096 11.6448C4.13872 11.6448 4.11421 11.657 4.10197 11.6693C4.08972 11.6693 4.06522 11.6937 4.05297 11.706C4.05297 11.706 3.97948 11.755 4.00398 11.755C4.04073 11.755 4.07748 11.7672 4.10197 11.7917C4.12647 11.8162 4.13872 11.8408 4.15096 11.8774C4.15096 11.9142 4.15096 11.9387 4.16322 11.9755C4.16322 12.0122 4.16322 12.0367 4.16322 12.0735C4.16322 12.1101 4.13872 12.1224 4.10197 12.1224C4.07748 12.1224 4.06522 12.1224 4.04073 12.1224C3.96723 12.098 3.89374 12.0489 3.857 11.9877C3.8325 11.9632 3.82025 11.9265 3.808 11.8897C3.808 11.8529 3.808 11.8162 3.808 11.7794C3.808 11.6693 3.857 11.559 3.89374 11.461C3.91824 11.412 3.94274 11.3508 4.00398 11.3262C4.06522 11.3018 4.12647 11.3262 4.18771 11.3508C4.22446 11.3508 4.2857 11.3508 4.3102 11.3141L4.42043 11.2038C4.42043 11.2038 4.44493 11.1426 4.40819 11.1426L3.84474 11.0078C3.84474 11.0078 3.74676 11.0078 3.72226 11.0446L3.61202 11.1547C3.61202 11.1547 3.58753 11.2161 3.62427 11.2161C3.67327 11.2161 3.71001 11.2405 3.759 11.2527C3.79575 11.2527 3.8325 11.265 3.86925 11.2773C3.95499 11.3018 3.86925 11.3753 3.84474 11.412C3.79575 11.4733 3.73451 11.5468 3.69776 11.608C3.63652 11.6937 3.59978 11.7794 3.57527 11.8774C3.56303 11.9387 3.55078 12.0122 3.55078 12.0735C3.55078 12.1469 3.58753 12.1837 3.63652 12.2204C3.68552 12.2572 3.73451 12.2817 3.79575 12.2939C3.8325 12.2939 3.86925 12.2939 3.91824 12.2939C4.06522 12.2817 4.19996 12.2204 4.32244 12.1592C4.40819 12.1101 4.49393 12.0367 4.53068 11.9509C4.54292 11.9142 4.54292 11.8774 4.54292 11.8408C4.54292 11.804 4.51843 11.7794 4.48168 11.755C4.43269 11.706 4.35919 11.6937 4.2857 11.6814C4.26121 11.6814 4.2367 11.6814 4.26121 11.657C4.26121 11.6448 4.2857 11.6325 4.29795 11.6325C4.33469 11.608 4.37144 11.5835 4.42043 11.559C4.44493 11.5345 4.48168 11.5222 4.50617 11.4978C4.53068 11.4855 4.56742 11.4733 4.60416 11.4978C4.62866 11.51 4.64091 11.5468 4.65316 11.5713C4.66541 11.608 4.6899 11.6448 4.70216 11.6814C4.7634 11.804 4.81239 11.9265 4.84914 12.0489C4.87364 12.1347 4.91038 12.2204 4.93488 12.3061C4.95937 12.3919 4.97163 12.4776 4.99612 12.5511C4.99612 12.5756 5.02062 12.6002 5.03287 12.6124C5.05737 12.6124 5.08186 12.5879 5.09412 12.5756C5.11861 12.5389 5.14311 12.4899 5.15536 12.4409C5.1676 12.3919 5.17985 12.3429 5.20435 12.3061C5.2411 12.2327 5.26559 12.1715 5.31459 12.098C5.36359 12.0122 5.42483 11.9142 5.47382 11.8162C5.53506 11.7182 5.60856 11.6202 5.6943 11.5468C5.7188 11.5222 5.7188 11.4855 5.68205 11.4855L5.63306 11.4488Z" fill="#515151"/>
<path d="M3.79662 14.0456C3.79662 14.0456 3.78437 14.0823 3.77212 14.0946C3.77212 14.1068 3.74762 14.1191 3.73538 14.1313C3.72312 14.1313 3.69863 14.1436 3.67413 14.1436C3.64964 14.1436 3.63738 14.1436 3.61289 14.1436H3.5639C3.5639 14.1436 3.52715 14.1191 3.50265 14.1068C3.4904 14.1068 3.46591 14.0823 3.46591 14.0701C3.46591 14.0579 3.44141 14.0456 3.44141 14.0211C3.44141 14.0088 3.44141 13.9844 3.44141 13.9721L3.55165 13.5189C3.55165 13.5189 3.5639 13.4821 3.57614 13.4699C3.57614 13.4577 3.60064 13.4454 3.61289 13.4332C3.62514 13.4332 3.64964 13.4209 3.67413 13.4209C3.69863 13.4209 3.71088 13.4209 3.73538 13.4209H3.78437C3.78437 13.4209 3.82112 13.4454 3.84561 13.4577C3.85786 13.4577 3.88236 13.4821 3.88236 13.4944C3.88236 13.5066 3.90686 13.5189 3.90686 13.5434C3.90686 13.5556 3.90686 13.5801 3.90686 13.5924L3.79662 14.0456ZM3.75987 13.5679C3.75987 13.5679 3.75987 13.5556 3.75987 13.5434C3.75987 13.5434 3.75987 13.5434 3.73538 13.5434C3.73538 13.5434 3.72312 13.5434 3.71088 13.5434C3.71088 13.5434 3.71088 13.5434 3.69863 13.5556L3.58839 13.9966C3.58839 13.9966 3.58839 14.0088 3.58839 14.0211C3.58839 14.0211 3.58839 14.0211 3.61289 14.0211C3.61289 14.0211 3.62514 14.0211 3.63738 14.0211C3.63738 14.0211 3.63738 14.0211 3.64964 14.0088L3.75987 13.5679Z" fill="#515151"/>
<path d="M4.50465 13.6284L4.34542 14.2899C4.34542 14.2899 4.34542 14.3021 4.32092 14.2899L4.19843 14.2653C4.19843 14.2653 4.18619 14.2653 4.18619 14.2531L4.25968 13.9469L4.11269 14.1796V13.9101L4.01471 14.2164C4.01471 14.2164 4.01471 14.2285 3.9902 14.2164L3.86772 14.1919C3.86772 14.1919 3.85547 14.1919 3.85547 14.1796L4.01471 13.5182C4.01471 13.5182 4.01471 13.5059 4.03921 13.5182L4.1372 13.5426V13.9224L4.33317 13.5917C4.33317 13.5917 4.33317 13.5917 4.34542 13.5917L4.44341 13.6161C4.44341 13.6161 4.45566 13.6161 4.45566 13.6284H4.50465Z" fill="#515151"/>
<path d="M5.55934 15.4167L1.75 14.4368L3.25659 8.60645L7.06593 9.58634L5.55934 15.4167ZM2.30119 14.1184L5.24088 14.8777L6.52699 9.91706L3.5873 9.15764L2.30119 14.1184Z" fill="#515151"/>
<path d="M10.0045 16.2867L6.10938 15.7845L6.88104 9.81934L10.7761 10.3215L10.0045 16.2867ZM6.61157 15.4047L9.62475 15.7845L10.2739 10.7012L7.26075 10.3215L6.61157 15.4047Z" fill="#515151"/>
<path d="M14.5256 16.3962L10.5938 16.3227L10.704 10.3086L14.6358 10.3821L14.5256 16.3962ZM11.0469 15.8818L14.0846 15.9307L14.1826 10.8108L11.1449 10.7619L11.0469 15.8818Z" fill="#515151"/>
<path d="M15.2243 16.2993L14.4648 10.3343L18.3599 9.83203L19.1193 15.7972L15.2243 16.2993ZM14.967 10.7139L15.6162 15.7972L18.6294 15.4052L17.9802 10.322L14.967 10.7139Z" fill="#515151"/>
<path d="M19.7768 15.4541L18.0742 9.68495L21.8468 8.57031L23.5494 14.3394L19.7768 15.4541ZM18.6377 9.97894L20.083 14.8906L22.9982 14.0332L21.5528 9.12151L18.6377 9.97894Z" fill="#515151"/>
<path d="M9.35952 11.8033L9.0533 11.7665C9.0533 11.7665 8.96756 11.7788 8.94306 11.8155L8.84507 11.938C8.84507 11.938 8.83282 11.9993 8.86957 11.9993C8.91857 11.9993 8.96756 11.9993 9.01655 12.036C9.0533 12.0728 9.07779 12.134 9.06555 12.1829C9.0533 12.2442 9.04104 12.3055 9.0288 12.3667C9.00431 12.4524 8.99205 12.5381 8.99205 12.6239C8.99205 12.6975 8.99205 12.7709 8.9798 12.8444C8.9553 12.9056 8.94306 12.8444 8.93081 12.8199C8.91857 12.7709 8.90631 12.7341 8.89406 12.6852C8.86957 12.5872 8.82057 12.4892 8.75933 12.4157C8.68583 12.33 8.61235 12.2565 8.5021 12.232C8.47761 12.232 8.45311 12.232 8.44086 12.2197C8.42862 12.2074 8.41636 12.1708 8.41636 12.1462C8.41636 12.085 8.41636 11.9993 8.45311 11.9625C8.47761 11.938 8.5021 11.9502 8.53885 11.9625C8.5756 11.9625 8.62459 11.9502 8.64908 11.9135L8.74708 11.791C8.74708 11.791 8.75933 11.7298 8.72258 11.7298L8.14689 11.6562C8.14689 11.6562 8.06115 11.6685 8.03666 11.7053L7.93866 11.8278C7.93866 11.8278 7.92642 11.889 7.96316 11.889C7.99991 11.889 8.0244 11.889 8.06115 11.9013C8.13465 11.9013 8.17139 11.938 8.20814 12.0114C8.22039 12.036 8.23263 12.0605 8.24488 12.085C8.24488 12.1094 8.31838 12.1952 8.28163 12.2197C8.26938 12.2197 8.23263 12.2197 8.22039 12.2197C8.15915 12.232 8.11014 12.2442 8.06115 12.2809C7.97541 12.33 7.90192 12.4157 7.87742 12.5015C7.85293 12.5627 7.86518 12.6361 7.87742 12.7096C7.90192 12.7832 7.93867 12.8689 8.01216 12.9056C8.0489 12.9179 8.0979 12.9302 8.13465 12.9424C8.18364 12.9424 8.24488 12.9424 8.29387 12.9179C8.40412 12.8567 8.45311 12.7709 8.46536 12.6484C8.46536 12.6117 8.47761 12.5872 8.51435 12.5872C8.53885 12.5872 8.5756 12.5995 8.60009 12.6239C8.66134 12.6607 8.69809 12.7096 8.73484 12.7709C8.79608 12.8444 8.80832 12.9424 8.86957 13.0282C8.90631 13.0894 8.9553 13.0404 8.9798 13.0036C9.01655 12.9547 9.0288 12.9179 9.0288 12.8567C9.04104 12.7832 9.0533 12.7096 9.0533 12.6484C9.0533 12.5504 9.07779 12.4524 9.10229 12.3422C9.10229 12.2932 9.12679 12.2442 9.12679 12.1952C9.12679 12.1585 9.15129 12.1217 9.17578 12.085C9.20028 12.0482 9.24928 12.0482 9.27378 12.0114L9.37176 11.889C9.39626 11.8645 9.38401 11.8278 9.34726 11.8278L9.35952 11.8033ZM8.31838 12.8199C8.31838 12.8199 8.31838 12.8199 8.30613 12.8322C8.24488 12.8689 8.19589 12.8567 8.13465 12.8322C8.0979 12.8322 8.06115 12.8076 8.03666 12.7709C7.99991 12.7219 7.98766 12.6729 7.98766 12.6117C7.98766 12.5872 7.98766 12.5627 7.98766 12.5381C8.01216 12.4647 8.06115 12.428 8.13465 12.4157C8.19589 12.4157 8.25714 12.4157 8.31838 12.4524C8.33062 12.4524 8.36737 12.4647 8.36737 12.4892C8.36737 12.5137 8.36737 12.5504 8.36737 12.5872C8.36737 12.6607 8.36737 12.7709 8.30613 12.8199H8.31838Z" fill="#515151"/>
<path d="M8.31397 14.3515L8.22823 15.0251C8.22823 15.0251 8.22823 15.0374 8.20373 15.0251H8.08124C8.08124 15.0251 8.06899 15.0006 8.06899 14.9885L8.10574 14.6699L7.98325 14.9149L7.93426 14.6455L7.89751 14.9639C7.89751 14.9639 7.89751 14.9762 7.87302 14.9639H7.75053C7.75053 14.9639 7.73828 14.9394 7.73828 14.9271L7.82402 14.2535C7.82402 14.2535 7.82402 14.2412 7.84851 14.2535H7.95876C7.95876 14.2535 7.95876 14.2657 7.971 14.278L8.02 14.6455L8.16698 14.3025C8.16698 14.3025 8.16698 14.3025 8.17923 14.3025H8.28947L8.30171 14.327L8.31397 14.3515Z" fill="#515151"/>
<path d="M8.70393 15.0861C8.70393 15.0861 8.70393 15.0984 8.69169 15.0861H8.58144C8.58144 15.0861 8.5692 15.0616 8.5692 15.0493V14.9391H8.4957L8.47121 15.0493C8.47121 15.0493 8.47121 15.0616 8.44671 15.0493H8.33647C8.33647 15.0493 8.32422 15.0248 8.32422 15.0126L8.50795 14.3511C8.50795 14.3511 8.50796 14.3389 8.53245 14.3511L8.69169 14.3757C8.69169 14.3757 8.70393 14.3757 8.70393 14.3879V15.0739V15.0861ZM8.5692 14.8412V14.5717L8.50795 14.8412H8.5692Z" fill="#515151"/>
<path d="M13.152 11.8649C13.1397 11.8037 13.1031 11.7424 13.0785 11.6812C13.0417 11.6077 13.0051 11.522 12.9437 11.4608C12.8825 11.3872 12.8213 11.3137 12.7356 11.2647C12.6498 11.2157 12.5641 11.228 12.4784 11.2647C12.2824 11.3382 12.0129 11.6322 12.2578 11.816C12.2701 11.8281 12.3069 11.8281 12.3313 11.8404C12.3558 11.8404 12.3804 11.8404 12.3926 11.8527C12.4416 11.8527 12.4906 11.8527 12.5273 11.8281C12.6008 11.8037 12.6865 11.7424 12.6865 11.6567C12.6865 11.6322 12.6865 11.5954 12.6498 11.5832C12.6253 11.5832 12.6008 11.5832 12.6008 11.6077C12.6008 11.62 12.6131 11.6444 12.6131 11.6567C12.6131 11.6812 12.6131 11.7057 12.6131 11.7302C12.6131 11.7669 12.5764 11.7669 12.5396 11.7669C12.4538 11.7669 12.4049 11.718 12.3681 11.6444C12.3436 11.5954 12.3313 11.522 12.3436 11.4729C12.3558 11.3872 12.4293 11.3872 12.5028 11.3872C12.6621 11.3872 12.7968 11.522 12.8948 11.6444C12.9437 11.7057 12.9928 11.7792 13.0417 11.8527C13.0663 11.8895 13.0785 11.9139 13.1031 11.9507C13.1031 11.9752 13.1152 12.0119 13.152 12.0119C13.1888 12.0119 13.1765 11.9752 13.1765 11.9507C13.1765 11.9261 13.1765 11.9017 13.1643 11.8772L13.152 11.8649Z" fill="#515151"/>
<path d="M13.0212 12.5875C13.0212 12.5875 13.009 12.5875 12.9968 12.5752C12.9233 12.5262 12.813 12.5139 12.7273 12.5262C12.6415 12.5262 12.5558 12.563 12.4823 12.5997C12.4578 12.5997 12.421 12.6487 12.3966 12.6364C12.3843 12.6364 12.3843 12.5875 12.3966 12.5752C12.421 12.4527 12.4946 12.367 12.6048 12.3058C12.6905 12.2567 12.7762 12.2567 12.862 12.2567C12.8988 12.2567 12.9477 12.2323 12.9722 12.1955L13.0457 12.073C13.0457 12.073 13.0457 12.0117 13.009 12.0117H12.3231C12.3231 12.0117 12.2373 12.0363 12.2129 12.073L12.1394 12.1955C12.1394 12.1955 12.1394 12.2567 12.1761 12.2567H12.3475C12.3475 12.2567 12.4455 12.2445 12.4701 12.2567C12.5068 12.2812 12.4701 12.318 12.4578 12.3424C12.4333 12.3915 12.3966 12.4282 12.3598 12.465C12.3231 12.5018 12.3109 12.5507 12.2863 12.5875C12.2618 12.6364 12.2373 12.6854 12.2251 12.7344C12.1638 12.8937 12.1271 13.0529 12.1148 13.2121C12.1148 13.3224 12.1026 13.4449 12.1148 13.5551C12.1148 13.6164 12.1148 13.6776 12.1148 13.7388C12.1148 13.9103 12.1271 14.0818 12.1271 14.2411C12.1271 14.3023 12.1271 14.3635 12.1271 14.4247C12.1271 14.437 12.1271 14.4738 12.1515 14.486C12.1761 14.486 12.1883 14.4615 12.2006 14.4492C12.2251 14.4125 12.2373 14.4003 12.2251 14.3635C12.2251 14.3145 12.2251 14.2655 12.2251 14.2165C12.2129 14.0328 12.1883 13.8368 12.1883 13.6531C12.1883 13.5673 12.1761 13.4938 12.1883 13.4081C12.1883 13.3224 12.2129 13.2366 12.2495 13.1631C12.2495 13.1386 12.2863 13.0651 12.3231 13.0897C12.3231 13.0897 12.3475 13.1264 12.3475 13.1386C12.3475 13.1509 12.3721 13.1754 12.3843 13.1877C12.4089 13.2121 12.4455 13.2366 12.4823 13.2489C12.5558 13.2734 12.6415 13.2611 12.715 13.2366C12.7396 13.2366 12.764 13.2121 12.7885 13.1999C12.8865 13.1509 12.9722 13.0774 13.0457 12.9917C13.156 12.8691 13.1682 12.6732 13.0335 12.563L13.0212 12.5875ZM12.9233 12.9794C12.8988 13.0774 12.8253 13.1386 12.7273 13.1631C12.6415 13.1877 12.5068 13.1631 12.4455 13.0897C12.4089 13.0406 12.3843 12.9426 12.4089 12.8814C12.4333 12.7957 12.519 12.759 12.5925 12.7467C12.617 12.7467 12.6293 12.7467 12.6538 12.7467C12.7028 12.7467 12.7396 12.7467 12.7762 12.7467C12.8253 12.7467 12.862 12.7467 12.8988 12.7957C12.9355 12.8447 12.9477 12.9182 12.9355 12.9794H12.9233Z" fill="#515151"/>
<path d="M12.7 14.7799V15.4535C12.7 15.4535 12.7 15.4658 12.6878 15.4658H12.602C12.602 15.4658 12.602 15.4658 12.5898 15.4658L12.4551 15.1351V15.4658C12.4551 15.4658 12.4551 15.478 12.4428 15.478H12.3325C12.3325 15.478 12.3203 15.478 12.3203 15.4658V14.7921C12.3203 14.7921 12.3203 14.7799 12.3325 14.7799H12.4183C12.4183 14.7799 12.4183 14.7799 12.4305 14.7799L12.5652 15.0983V14.7799C12.5652 14.7799 12.5652 14.7676 12.5775 14.7676H12.6878C12.6878 14.7676 12.7 14.7676 12.7 14.7799Z" fill="#515151"/>
<path d="M12.959 15.4535C12.959 15.4535 12.959 15.4658 12.9467 15.4658H12.8365C12.8365 15.4658 12.8242 15.4658 12.8242 15.4535V14.7799C12.8242 14.7799 12.8242 14.7676 12.8365 14.7676H12.9467C12.9467 14.7676 12.959 14.7676 12.959 14.7799V15.4535Z" fill="#515151"/>
<path d="M17.5395 11.4604C17.5395 11.4604 17.466 11.3624 17.4293 11.3134C17.3925 11.2766 17.3313 11.2399 17.27 11.2277C17.221 11.2154 17.1598 11.2031 17.1108 11.2031C17.0741 11.2031 17.0373 11.2522 17.0128 11.2889C17.0128 11.2889 16.9516 11.3624 16.9883 11.3624C17.1108 11.3624 17.221 11.3869 17.3313 11.4114C17.3925 11.4237 17.4537 11.4481 17.5028 11.4849C17.5272 11.4971 17.5517 11.5217 17.564 11.5584C17.564 11.5706 17.5763 11.5829 17.5885 11.6074C17.5885 11.6074 17.5885 11.6318 17.6008 11.6441C17.6252 11.6441 17.6008 11.5706 17.6008 11.5706C17.5885 11.5338 17.564 11.4971 17.5517 11.4604H17.5395Z" fill="#515151"/>
<path d="M17.3043 12.918L17.0471 12.9547C17.0471 12.9547 16.9736 12.9915 16.9613 13.016L16.9123 13.1262C16.9123 13.1262 16.9123 13.1752 16.9491 13.1752C16.9859 13.1752 17.0348 13.1507 17.0716 13.1752C17.1083 13.1997 17.1451 13.2487 17.1451 13.2854C17.1451 13.3345 17.1451 13.3834 17.1573 13.4447C17.1573 13.5182 17.1695 13.5917 17.1818 13.6652C17.1818 13.7264 17.2186 13.7754 17.2186 13.8489C17.2186 13.8979 17.194 13.8612 17.1695 13.8489C17.1451 13.8121 17.1328 13.7877 17.1083 13.7509C17.0716 13.6774 17.0103 13.6039 16.9491 13.5549C16.8756 13.4937 16.7899 13.4569 16.7041 13.4692C16.6919 13.4692 16.6673 13.4692 16.6428 13.4692C16.6306 13.4692 16.6184 13.4325 16.6061 13.4202C16.6061 13.3712 16.5693 13.3099 16.5939 13.261C16.6061 13.2365 16.6306 13.2365 16.6551 13.2365C16.6919 13.2365 16.7286 13.1997 16.7408 13.1752L16.7899 13.065C16.7899 13.065 16.7899 13.016 16.7531 13.016L16.2754 13.0772C16.2754 13.0772 16.202 13.1139 16.1897 13.1385L16.1406 13.2487C16.1406 13.2487 16.1406 13.2977 16.1774 13.2977C16.202 13.2977 16.2264 13.2977 16.2632 13.2977C16.3244 13.2977 16.3612 13.2977 16.4101 13.3467C16.4224 13.359 16.4469 13.3834 16.4592 13.3957C16.4713 13.4079 16.5449 13.4692 16.5204 13.4937C16.5204 13.4937 16.4836 13.5059 16.4713 13.5182C16.4346 13.5427 16.3856 13.5672 16.3489 13.6039C16.2877 13.6652 16.2509 13.7386 16.2509 13.8244C16.2509 13.8734 16.2632 13.9346 16.2999 13.9836C16.3366 14.0449 16.3856 14.0939 16.4592 14.1061C16.4959 14.1061 16.5326 14.1061 16.5693 14.1061C16.6184 14.1061 16.6551 14.0816 16.6919 14.0449C16.7653 13.9714 16.7899 13.8857 16.7776 13.7877C16.7776 13.7632 16.7776 13.7386 16.8144 13.7264C16.8388 13.7264 16.8633 13.7264 16.8879 13.7264C16.9368 13.7509 16.9859 13.7754 17.0348 13.8121C17.096 13.8612 17.1328 13.9346 17.194 13.9836C17.2431 14.0204 17.2675 13.9836 17.2798 13.9346C17.292 13.8979 17.292 13.8489 17.2798 13.8121C17.2798 13.7509 17.2675 13.6897 17.2552 13.6406C17.2431 13.5549 17.2308 13.4692 17.2186 13.3957C17.2186 13.359 17.2186 13.3099 17.2186 13.2733C17.2186 13.2365 17.2186 13.1997 17.2308 13.1752C17.2431 13.1385 17.2798 13.1262 17.292 13.1018L17.341 12.9915C17.3533 12.967 17.341 12.9425 17.3043 12.9425V12.918ZM16.6919 13.9592C16.6919 13.9592 16.6919 13.9592 16.6919 13.9714C16.6551 14.0081 16.6061 14.0081 16.5571 14.0204C16.5204 14.0204 16.4959 14.0204 16.4713 13.9959C16.4346 13.9592 16.4101 13.9224 16.3979 13.8734C16.3979 13.8489 16.3979 13.8366 16.3979 13.8121C16.3979 13.7509 16.4346 13.7142 16.4959 13.6897C16.5449 13.6652 16.5939 13.6652 16.6428 13.6774C16.6551 13.6774 16.6796 13.6774 16.6919 13.7019C16.7041 13.7264 16.7041 13.7509 16.7164 13.7754C16.7408 13.8366 16.7531 13.9224 16.7164 13.9714L16.6919 13.9592Z" fill="#515151"/>
<path d="M16.5816 11.8037L16.3121 11.8405C16.3121 11.8405 16.2387 11.8772 16.2264 11.9017L16.1774 12.012C16.1774 12.012 16.1774 12.061 16.2142 12.061C16.2877 12.061 16.3979 12.012 16.4224 12.11C16.4224 12.1467 16.4347 12.1835 16.4469 12.2324C16.4469 12.2692 16.4469 12.3182 16.4592 12.355C16.4592 12.4407 16.4714 12.5264 16.4836 12.6122C16.4836 12.6367 16.4836 12.6734 16.4959 12.7102C16.4959 12.7346 16.5081 12.7714 16.4959 12.7959C16.4959 12.8571 16.4224 12.7714 16.3979 12.7469C16.3612 12.6979 16.3121 12.6489 16.2632 12.5999C16.2142 12.551 16.1652 12.5019 16.104 12.4774C16.0427 12.453 15.9692 12.4284 15.908 12.4407C15.81 12.4407 15.712 12.5019 15.6385 12.551C15.6262 12.5631 15.6018 12.5754 15.5895 12.5877C15.5895 12.5877 15.5773 12.6122 15.565 12.5999V12.5754C15.565 12.5387 15.565 12.5019 15.5773 12.4652C15.5895 12.3917 15.614 12.3304 15.6507 12.2692C15.6753 12.2202 15.7242 12.1712 15.7733 12.1344C15.8222 12.0978 15.8834 12.11 15.9325 12.0978C15.9692 12.0978 16.006 12.061 16.0182 12.0364L16.0672 11.9263C16.0672 11.9263 16.0672 11.8772 16.0305 11.8772L15.5527 11.9385C15.5527 11.9385 15.4793 11.9752 15.467 11.9997L15.418 12.11C15.418 12.11 15.418 12.159 15.4547 12.159C15.4915 12.159 15.5161 12.159 15.5527 12.1467C15.5895 12.1467 15.6262 12.1222 15.663 12.1467C15.712 12.1712 15.6262 12.257 15.6018 12.2815C15.5527 12.355 15.5161 12.4284 15.5038 12.5142C15.5038 12.551 15.4915 12.5999 15.4793 12.6367C15.4793 12.6611 15.4793 12.6979 15.4793 12.7346C15.4915 12.7591 15.5161 12.7346 15.5282 12.7346C15.5405 12.7225 15.5527 12.6979 15.565 12.6734C15.6018 12.6367 15.6385 12.6367 15.6875 12.6244C15.7365 12.6244 15.7854 12.6122 15.8345 12.6244C15.908 12.6244 15.9692 12.6611 16.0427 12.6857C16.0794 12.6857 16.1162 12.7102 16.1652 12.7225C16.1774 12.7225 16.1897 12.7225 16.2142 12.7346C16.2387 12.7469 16.2754 12.7591 16.3 12.7714C16.3244 12.7837 16.3612 12.8082 16.3857 12.8204C16.4101 12.8326 16.4347 12.8571 16.4469 12.8694C16.4959 12.8939 16.5327 12.8694 16.5204 12.8082C16.5081 12.6857 16.5081 12.551 16.4836 12.4407C16.4836 12.355 16.4592 12.257 16.4592 12.1712C16.4592 12.1222 16.4592 12.0855 16.4836 12.0487C16.4836 12.0364 16.4959 12.012 16.5081 11.9997C16.5081 11.9997 16.5327 11.9875 16.5327 11.963L16.5816 11.8528C16.5939 11.8283 16.5816 11.8037 16.5449 11.8037H16.5816Z" fill="#515151"/>
<path d="M17.7716 11.669C17.7716 11.669 17.7593 11.6445 17.7348 11.6445L16.8652 11.767C16.8652 11.767 16.7917 11.8037 16.7794 11.8283L16.7305 11.9385C16.7305 11.9385 16.7305 11.9875 16.7672 11.9875C16.8039 11.9875 16.8285 11.9875 16.8652 11.9753C16.9019 11.9753 16.9386 11.9508 16.9754 11.9753C17.0244 11.9997 16.9386 12.0855 16.9142 12.11C16.8652 12.1835 16.8285 12.257 16.8162 12.3427C16.8162 12.3795 16.8039 12.4284 16.7917 12.4652C16.7917 12.4897 16.7917 12.5264 16.7917 12.5632C16.8039 12.5876 16.8285 12.5632 16.8406 12.5632C16.8529 12.551 16.8652 12.5264 16.8774 12.5019C16.9142 12.4652 16.9509 12.4652 16.9999 12.453C17.0489 12.453 17.0978 12.4407 17.1469 12.453C17.2204 12.453 17.2816 12.4897 17.3552 12.5142C17.3919 12.5142 17.4286 12.5387 17.4776 12.551C17.6001 12.5876 17.6981 12.6856 17.7593 12.7959C17.7839 12.845 17.8328 13.0531 17.8696 13.0531C17.9308 13.0531 17.7716 12.6612 17.7593 12.6244C17.6859 12.4897 17.5633 12.3672 17.4164 12.306C17.3552 12.2815 17.2816 12.257 17.2204 12.2692C17.1224 12.2692 17.0244 12.3304 16.9509 12.3795C16.9386 12.3917 16.9142 12.404 16.9019 12.4162C16.9019 12.4162 16.8897 12.4407 16.8774 12.4284V12.404C16.8774 12.3672 16.8774 12.3304 16.8897 12.2937C16.9019 12.2203 16.9264 12.159 16.9632 12.0977C16.9877 12.0488 17.0366 11.9997 17.0857 11.963C17.1346 11.9263 17.5879 11.8773 17.6491 11.865C17.6859 11.865 17.7225 11.8283 17.7348 11.8037L17.7839 11.6936C17.7839 11.6936 17.7839 11.6813 17.7839 11.669H17.7716Z" fill="#515151"/>
<path d="M16.143 14.5841C16.143 14.5841 16.1798 14.5841 16.2043 14.5841C16.2165 14.5841 16.241 14.5841 16.2533 14.5963C16.2656 14.5963 16.2778 14.6209 16.2901 14.6331C16.2901 14.6454 16.3023 14.6576 16.3023 14.6698L16.3268 14.8169C16.3268 14.8169 16.3268 14.8413 16.3268 14.8658C16.3268 14.8781 16.3145 14.8903 16.3023 14.9026C16.3023 14.9026 16.2778 14.927 16.2656 14.927C16.2533 14.927 16.2288 14.9393 16.2165 14.9393H16.1676L16.2043 15.1843C16.2043 15.1843 16.2043 15.1965 16.1921 15.1965H16.0941H16.0818L15.9961 14.5963C15.9961 14.5963 15.9961 14.5841 16.0083 14.5841L16.1798 14.5596L16.143 14.5841ZM16.1676 14.6943C16.1676 14.6943 16.1676 14.6943 16.1676 14.6821C16.1676 14.6821 16.1553 14.6821 16.143 14.6821H16.1063L16.1308 14.8658H16.1676C16.1676 14.8658 16.1798 14.8658 16.1798 14.8535C16.1798 14.8535 16.1798 14.8535 16.1798 14.8413L16.1553 14.7066L16.1676 14.6943Z" fill="#515151"/>
<path d="M16.7292 15.1232V15.1355H16.6312H16.619L16.5944 15.0374H16.521V15.1477C16.521 15.1477 16.521 15.16 16.5087 15.16H16.4107H16.3984V14.5475C16.3984 14.5475 16.3984 14.5353 16.4107 14.5353L16.5577 14.5107C16.5577 14.5107 16.5699 14.5107 16.5822 14.5107L16.7414 15.0988L16.7292 15.1232ZM16.5577 14.9517L16.5087 14.719V14.964H16.5577V14.9517Z" fill="#515151"/>
<path d="M16.9137 14.4736C16.9137 14.4736 16.9504 14.4736 16.9749 14.4736C16.9872 14.4736 17.0117 14.4736 17.024 14.4859C17.0361 14.4859 17.0484 14.5104 17.0607 14.5226C17.0607 14.5349 17.0729 14.5471 17.0729 14.5593L17.1219 14.9636C17.1219 14.9636 17.1219 14.988 17.1219 15.0126C17.1219 15.0248 17.1097 15.0371 17.0975 15.0493C17.0975 15.0493 17.0729 15.0738 17.0607 15.0738C17.0484 15.0738 17.024 15.086 17.0117 15.086L16.8402 15.1106H16.828L16.7422 14.5104C16.7422 14.5104 16.7422 14.4981 16.7545 14.4981L16.926 14.4736H16.9137ZM16.9382 14.5839C16.9382 14.5839 16.9382 14.5839 16.9382 14.5716C16.9382 14.5716 16.926 14.5716 16.9137 14.5716H16.8769L16.9382 15.0126H16.9749C16.9749 15.0126 16.9872 15.0126 16.9872 15.0003C16.9872 15.0003 16.9872 15.0003 16.9872 14.988L16.9382 14.5961V14.5839Z" fill="#515151"/>
<path d="M17.5727 14.4004L17.6584 15.0006C17.6584 15.0006 17.6584 15.0129 17.6462 15.0129H17.5359C17.5359 15.0129 17.5236 15.0251 17.5236 15.0129L17.487 14.7311L17.4502 14.9761L17.3399 14.7556L17.3767 15.0374C17.3767 15.0374 17.3767 15.0495 17.3644 15.0495H17.2542C17.2542 15.0495 17.242 15.0618 17.242 15.0495L17.1562 14.4494C17.1562 14.4494 17.1563 14.4371 17.1684 14.4371H17.2664L17.4012 14.7434L17.4502 14.4127H17.5482H17.5604L17.5727 14.4004Z" fill="#515151"/>
<path d="M18.0148 14.8656V14.9391V14.9513L17.7699 14.988H17.7576L17.6719 14.3879C17.6719 14.3879 17.6719 14.3756 17.6841 14.3756L17.9291 14.3389H17.9413V14.4124V14.4246H17.8188L17.8311 14.5716H17.9413C17.9413 14.5716 17.9536 14.5593 17.9536 14.5716V14.6451V14.6573H17.8433L17.8679 14.8533H17.9903C17.9903 14.8533 18.0025 14.8411 18.0025 14.8533L18.0148 14.8656Z" fill="#515151"/>
<path d="M20.3917 10.2115C20.3304 10.2115 20.2692 10.2482 20.2202 10.2849C20.1957 10.3095 20.1712 10.3462 20.1466 10.3829C20.11 10.4441 20.0854 10.5299 20.1466 10.5789C20.1834 10.6156 20.2569 10.6035 20.306 10.5789C20.3672 10.5667 20.4284 10.5177 20.4652 10.4687C20.5019 10.4197 20.5509 10.3462 20.5264 10.2849C20.5141 10.2237 20.4407 10.1992 20.3794 10.1992L20.3917 10.2115ZM20.4774 10.4075C20.4774 10.4075 20.4284 10.4687 20.3917 10.4809C20.3549 10.4809 20.306 10.4932 20.2692 10.4932C20.2324 10.4932 20.1957 10.4932 20.1712 10.4441C20.1712 10.4197 20.1712 10.3829 20.1957 10.3584C20.2324 10.3217 20.2814 10.2972 20.3426 10.2972C20.3917 10.2972 20.4407 10.3217 20.4652 10.3584C20.4652 10.3707 20.4774 10.3952 20.4774 10.4075Z" fill="#515151"/>
<path d="M20.6474 10.3584C20.6351 10.3584 20.6351 10.3829 20.6351 10.3952C20.6351 10.4319 20.6229 10.4687 20.5494 10.5422C20.5004 10.6034 20.4147 10.6402 20.3412 10.6524C20.2187 10.6769 20.1084 10.6524 20.0595 10.6279C20.035 10.6156 20.0104 10.5911 19.9983 10.5789C19.9983 10.5789 19.9737 10.5544 19.9737 10.5422C19.9737 10.5422 19.9737 10.5176 19.9492 10.5176C19.9492 10.5176 19.9615 10.5667 19.9737 10.5789C19.9737 10.6034 19.9983 10.6156 20.0104 10.6402C20.035 10.6769 20.0717 10.7014 20.1084 10.7259C20.182 10.7626 20.2799 10.7871 20.3657 10.7626C20.4759 10.7259 20.5371 10.6769 20.5984 10.6034C20.6474 10.5299 20.6597 10.4442 20.6597 10.4074V10.3707L20.6474 10.3584Z" fill="#515151"/>
<path d="M21.4839 11.5457C21.4839 11.4722 21.4472 11.3987 21.4105 11.3252C21.3982 11.3007 21.3615 11.264 21.337 11.2395C21.3125 11.2272 21.288 11.2027 21.2512 11.1906C21.1287 11.1538 20.994 11.2027 20.896 11.2885C20.8593 11.3252 20.8348 11.3865 20.7858 11.3987C20.7368 11.3987 20.6878 11.362 20.6388 11.3498C20.5653 11.3252 20.5041 11.3252 20.4305 11.3498C20.3326 11.3742 20.2469 11.4355 20.1733 11.509C20.1612 11.5212 20.1366 11.5457 20.1244 11.5579C20.1244 11.5579 20.1244 11.5947 20.0998 11.5825C20.0998 11.5825 20.0998 11.5579 20.0998 11.5457C20.0998 11.509 20.0998 11.4722 20.0998 11.4355C20.0998 11.362 20.1121 11.2885 20.1366 11.2272C20.1612 11.166 20.1856 11.1048 20.2346 11.068C20.2836 11.0312 20.7368 10.8965 20.798 10.8843C20.8348 10.8843 20.8592 10.8353 20.8715 10.8108L20.896 10.6883V10.6639C20.896 10.6516 20.8715 10.6393 20.8471 10.6516L19.9652 10.9211C19.9652 10.9211 19.9038 10.97 19.8917 10.9945L19.8672 11.117C19.8672 11.117 19.8672 11.166 19.9161 11.1538C19.9529 11.1538 19.9774 11.1292 20.0141 11.1292C20.0509 11.1292 20.0876 11.0925 20.1244 11.1048C20.1856 11.1048 20.0998 11.2272 20.0876 11.264C20.0509 11.3498 20.0264 11.4355 20.0264 11.5212C20.0264 11.5579 20.0264 11.607 20.0264 11.6559C20.0264 11.6927 20.0264 11.7294 20.0509 11.7539C20.0754 11.7785 20.0876 11.7539 20.0998 11.7417C20.0998 11.7172 20.1244 11.6927 20.1366 11.6805C20.1612 11.6437 20.2101 11.6192 20.2469 11.607C20.3204 11.5702 20.4184 11.5579 20.5041 11.5457C20.5531 11.5457 20.6143 11.5457 20.6633 11.5457C20.6878 11.5457 20.7123 11.5457 20.7368 11.5457C20.7858 11.5457 20.8348 11.5702 20.8838 11.607C20.9205 11.6314 20.945 11.6559 20.9695 11.6927C20.9695 11.6927 20.9818 11.7539 20.994 11.7539C21.0186 11.7539 21.0063 11.6805 20.994 11.6682C20.994 11.6437 20.9695 11.6192 20.9572 11.5947C20.9328 11.5457 20.896 11.509 20.8592 11.4722C20.8348 11.4478 20.8225 11.3987 20.8715 11.3865C20.9205 11.362 20.9695 11.3498 21.0186 11.3498C21.0675 11.3498 21.1287 11.362 21.1778 11.3865C21.239 11.4232 21.288 11.4845 21.3247 11.5335C21.4105 11.6437 21.4105 11.803 21.3615 11.9254C21.337 11.9866 21.3002 12.0479 21.2635 12.0969C21.239 12.1214 21.2145 12.1581 21.19 12.1826C21.1655 12.2072 21.1287 12.2438 21.0798 12.2438C21.043 12.2438 21.0063 12.2194 20.9695 12.2194C20.9083 12.2194 20.8471 12.2194 20.798 12.2317C20.6633 12.2806 20.5531 12.3909 20.4919 12.5133C20.4673 12.5624 20.4551 12.6113 20.4919 12.6604C20.5163 12.6848 20.5531 12.7093 20.5899 12.6848C20.602 12.6848 20.6633 12.6359 20.6265 12.6236C20.602 12.6236 20.602 12.6481 20.5653 12.6236C20.5408 12.6236 20.5408 12.5624 20.5285 12.5501C20.5285 12.4766 20.5531 12.4276 20.6143 12.4032C20.6511 12.3786 20.7 12.3664 20.7491 12.3664C20.8348 12.3664 20.9328 12.3909 20.9818 12.4644C21.0063 12.5011 21.0063 12.5501 20.994 12.5869C20.994 12.6113 20.9451 12.6604 20.9572 12.6971C20.994 12.6971 21.0308 12.6359 21.0552 12.6113C21.1043 12.5746 21.1778 12.5746 21.239 12.5746C21.288 12.5746 21.337 12.6113 21.3615 12.6481C21.3738 12.6726 21.3859 12.6971 21.3859 12.7216C21.3859 12.7584 21.3859 12.7584 21.3615 12.7828C21.3615 12.7828 21.3247 12.8196 21.337 12.8319C21.337 12.8563 21.3859 12.8319 21.3982 12.8319C21.4227 12.8319 21.4595 12.8319 21.4962 12.8319C21.5453 12.8319 21.5942 12.8685 21.631 12.9176C21.6677 12.9666 21.6554 13.0278 21.6065 13.0768C21.5574 13.1258 21.4962 13.1258 21.435 13.138C21.3738 13.138 21.3125 13.138 21.2635 13.138C21.2023 13.138 21.141 13.138 21.092 13.1258C20.994 13.1013 20.896 13.0646 20.798 13.04C20.7245 13.0156 20.6388 12.9911 20.5653 12.9788C20.5041 12.9666 20.4428 12.9543 20.3816 12.9788C20.3693 12.9788 20.3204 12.9788 20.3081 13.0033C20.3081 13.0278 20.3448 13.0156 20.3571 13.0156C20.3816 13.0156 20.3938 13.0156 20.4184 13.0156C20.4551 13.0156 20.5041 13.0278 20.5408 13.0523C20.6143 13.0768 20.6878 13.1135 20.7613 13.1503C20.8103 13.1748 20.8471 13.1992 20.896 13.2238C20.9572 13.2483 21.0063 13.285 21.0798 13.3095C21.2267 13.334 21.3982 13.3095 21.5207 13.2238C21.5819 13.1871 21.631 13.138 21.6677 13.0646C21.7045 13.0033 21.7412 12.9299 21.729 12.8563C21.7167 12.7828 21.6554 12.7339 21.5942 12.7339C21.5697 12.7339 21.5452 12.7339 21.533 12.7339C21.533 12.7339 21.4962 12.7584 21.4839 12.7584C21.4595 12.7584 21.4839 12.7216 21.4839 12.7093C21.4839 12.6848 21.4839 12.6481 21.4839 12.6236C21.4839 12.5624 21.435 12.5256 21.3738 12.5133C21.3247 12.5011 21.2758 12.5133 21.2267 12.5133C21.2145 12.5133 21.141 12.5746 21.1287 12.5501C21.1287 12.5379 21.1287 12.5256 21.141 12.5133C21.1532 12.4766 21.1655 12.4276 21.141 12.3909C21.1287 12.3174 21.141 12.2806 21.2023 12.2317C21.2635 12.1704 21.3247 12.0969 21.3738 12.0112C21.4472 11.8765 21.5085 11.7294 21.4839 11.5702V11.5457Z" fill="#515151"/>
<path d="M20.9825 13.5918L21.1663 14.192V14.2042L21.0683 14.2288C21.0683 14.2288 21.056 14.2288 21.0437 14.2288L20.9702 13.9716L20.8968 13.996L20.9702 14.2532V14.2655L20.8722 14.29C20.8722 14.29 20.86 14.29 20.8478 14.29L20.6641 13.6898V13.6776L20.7621 13.653C20.7621 13.653 20.7742 13.653 20.7865 13.653L20.86 13.898L20.9336 13.8736L20.86 13.6286V13.6163L20.958 13.5918C20.958 13.5918 20.9702 13.5918 20.9825 13.5918Z" fill="#515151"/>
<path d="M21.3966 13.4688L21.5559 13.9832C21.5559 13.9832 21.5559 14.0199 21.5559 14.0322C21.5559 14.0445 21.5559 14.069 21.5313 14.0811C21.5313 14.0934 21.5068 14.1057 21.4945 14.1179C21.4824 14.1179 21.4578 14.1425 21.4456 14.1425H21.4088C21.4088 14.1425 21.3721 14.1669 21.3476 14.1669C21.3231 14.1669 21.3109 14.1669 21.2986 14.1669C21.2864 14.1669 21.2741 14.1547 21.2618 14.1425C21.2618 14.1425 21.2373 14.1179 21.2373 14.1057L21.0781 13.5912V13.579L21.1761 13.5545C21.1761 13.5545 21.1884 13.5545 21.2006 13.5545L21.3598 14.0567C21.3598 14.0567 21.3598 14.0567 21.3721 14.069C21.3721 14.069 21.3844 14.069 21.3966 14.069C21.3966 14.069 21.4088 14.069 21.4088 14.0567C21.4088 14.0567 21.4088 14.0567 21.4088 14.0444L21.2496 13.5423V13.53L21.3476 13.5055C21.3476 13.5055 21.3598 13.5055 21.3721 13.5055L21.3966 13.4688Z" fill="#515151"/>
<path d="M21.9242 13.3096L22.108 13.9097V13.922L21.9978 13.9587C21.9978 13.9587 21.9855 13.9587 21.9733 13.9587L21.8875 13.677V13.9343L21.7405 13.726L21.8262 14.0077V14.02L21.7161 14.0567C21.7161 14.0567 21.7038 14.0567 21.6915 14.0567L21.5078 13.4565V13.4443L21.6058 13.4197C21.6058 13.4197 21.6058 13.4197 21.6181 13.4197L21.8018 13.7137V13.3708L21.8998 13.3463C21.8998 13.3463 21.912 13.3463 21.9242 13.3463V13.3096Z" fill="#515151"/>
</g>
<defs>
<clipPath id="clip0_234_14105">
<rect width="24.375" height="24.375" fill="white" transform="translate(0.207031 0.194336)"/>
</clipPath>
</defs>
</svg>
