<svg width="26" height="25" viewBox="0 0 26 25" fill="none" xmlns="http://www.w3.org/2000/svg">
<g clip-path="url(#clip0_234_14149)">
<mask id="mask0_234_14149" style="mask-type:luminance" maskUnits="userSpaceOnUse" x="0" y="0" width="26" height="25">
<path d="M25.2969 0.194336H0.921875V24.5693H25.2969V0.194336Z" fill="white"/>
</mask>
<g mask="url(#mask0_234_14149)">
<path d="M4.17374 24.5437V16.8675L0.940982 16.7773L0.966741 15.8629L0.902344 14.8583L1.04402 14.9227C1.21145 14.8969 1.37889 14.8712 1.54632 14.8454C1.64935 14.8196 1.73951 14.6651 1.73951 14.5749C1.73951 14.3946 1.73951 14.2143 1.73951 14.034C1.73951 13.9439 1.76527 13.8666 1.82967 13.8151C1.89407 13.7506 1.97134 13.7249 2.04862 13.7249C2.21605 13.7249 2.35773 13.8666 2.35773 14.034V14.7295L3.28505 14.5749C3.87751 14.4719 4.44421 14.3689 5.02379 14.2787C5.7708 14.1628 6.50493 14.0468 7.25194 13.931L8.12775 13.8022L8.25654 13.7764C8.64293 13.6734 8.66869 13.6347 8.66869 13.2226V11.1232C8.66869 10.9815 8.64293 10.8785 8.48837 10.7884C8.33382 10.6982 8.19215 10.5951 8.05047 10.4921C7.89591 10.3891 7.74136 10.2732 7.57393 10.183C7.47089 10.1187 7.40649 9.98987 7.41937 9.86104C7.41937 9.78376 7.41937 9.70648 7.41937 9.62921V9.53906L7.32922 9.42314H2.87291L2.96306 7.56849C3.32369 7.49121 3.34945 7.45258 3.34945 6.98891V6.66692C3.34945 6.49949 3.47825 6.35782 3.65856 6.35782C3.85175 6.35782 3.99343 6.49949 3.99343 6.66692V7.45258L10.2271 6.40934L10.3044 6.07447C10.3044 5.79112 10.3044 5.50777 10.3044 5.22442C10.3044 5.14714 10.2529 5.06986 10.2013 5.03123C10.1112 4.94107 10.021 4.83804 9.93087 4.76076C9.60889 4.47741 9.36418 4.25846 9.51873 3.83343L9.55737 3.71752H7.78L7.87016 3.43417C7.87016 2.93187 7.87016 2.44245 7.87016 1.95302C8.10199 1.87575 8.26942 1.81135 8.24366 1.55376V1.41209C8.24366 1.32193 8.26942 1.24465 8.32094 1.19313C8.38533 1.12874 8.46261 1.10298 8.55277 1.10298C8.73309 1.10298 8.87476 1.24465 8.87476 1.42496V1.75983L12.6742 1.14162L12.7515 0.562038C12.7515 0.394604 12.8931 0.25293 13.0606 0.25293C13.228 0.25293 13.3697 0.394604 13.3697 0.562038V1.05146L17.2335 1.77271V1.43785C17.2335 1.25753 17.3752 1.11586 17.5556 1.11586C17.6457 1.11586 17.723 1.15449 17.7873 1.21889C17.8518 1.28329 17.8775 1.36057 17.8775 1.45072C17.8775 1.66968 17.8775 1.77271 17.942 1.84999C17.9935 1.90151 18.0578 1.92727 18.1351 1.92727L18.3154 1.9659L18.2897 3.83343L16.7183 3.74328H16.6411V3.87207C16.6926 4.30998 16.5767 4.58044 16.2676 4.7994C15.9198 5.0441 15.7267 5.46913 15.8039 5.88128C15.8169 5.97143 15.8169 6.07446 15.8039 6.19038V6.3707L17.9548 6.8086L22.1535 7.50409V6.70556C22.1535 6.53813 22.2952 6.39646 22.4627 6.39646C22.6558 6.39646 22.7846 6.53813 22.7846 6.70556V7.50409L23.2483 7.67152L23.171 9.52618L18.6889 9.43602V9.5777C18.7276 9.977 18.6246 10.1701 18.3284 10.3247C18.2382 10.3763 18.148 10.4406 18.0578 10.5051C17.9677 10.5694 17.8775 10.6339 17.7745 10.6853C17.5813 10.7884 17.4654 10.9815 17.4654 11.2005C17.4654 11.7929 17.4654 12.3726 17.4654 12.9779V13.6734L22.0505 14.4848L23.7248 14.7553V14.0598C23.7248 13.8794 23.8665 13.7378 24.0468 13.7378C24.2271 13.7378 24.3688 13.8794 24.3688 14.0598C24.3688 14.1885 24.3688 14.3173 24.3688 14.4461C24.343 14.7295 24.4718 14.8969 24.7552 14.9227L25.309 14.9742L25.2318 16.8418L22.0634 16.7902L21.9732 17.0735V24.518L22.0763 24.5694H4.17374V24.5437ZM13.4212 23.8224L13.5114 23.8868L14.6706 23.9126L14.7993 23.7838V22.6117L13.5114 22.5216H13.4212V23.8354V23.8224ZM11.3734 23.7838L11.5022 23.9126H12.6098L12.6485 23.8868L12.7515 23.7838V22.6117L11.4636 22.5216H11.3734V23.7838ZM4.83059 23.8224L10.6264 23.9126L10.7165 18.5676L10.5877 18.4388H4.83059V23.8224ZM15.5334 18.4388L15.4691 18.516L15.4433 23.8224L21.252 23.9126L21.3421 18.5418H21.3292L21.1747 18.426H15.5334V18.4388ZM11.3734 21.7746L12.6614 21.8648L12.7515 20.5768L11.4636 20.4866H11.3734V21.7746ZM13.4083 21.7746L14.6963 21.8648L14.7865 20.5768L13.4985 20.4866H13.4083V21.7746ZM11.3734 19.7396L12.6614 19.8298L12.7515 18.5289L11.4636 18.4388H11.3734V19.7396ZM13.4083 19.7396L14.6963 19.8298L14.7865 18.5418L13.4985 18.4517H13.4083V19.7396ZM4.79195 17.666L4.92075 17.7948H5.08818H21.033L21.2262 17.7561L21.2906 16.8933L4.79195 16.8031V17.6532V17.666ZM9.20963 14.356C8.96491 14.356 8.73309 14.3818 8.48837 14.4204C8.48837 14.4204 6.41477 14.7681 5.96399 14.8454C5.59049 14.9098 4.08358 15.1288 3.71008 15.1931C3.22065 15.2705 2.73123 15.3606 2.24181 15.4379L1.6236 15.5409L1.54632 16.069L24.4976 16.1591C24.6264 15.6439 24.6006 15.6053 24.1885 15.5152L23.3255 15.3606L19.539 14.7424L18.251 14.5492C18.0321 14.5106 17.9161 14.4977 17.7873 14.4719C17.504 14.4204 17.2078 14.3689 16.9245 14.3689C15.6751 14.3689 14.4258 14.3689 13.1766 14.3689H9.20963V14.356ZM9.31266 13.609L16.7442 13.6992L16.8343 11.1877L9.31266 11.0975V13.609ZM8.06335 9.6936C8.10199 9.77088 8.14063 9.83528 8.20503 9.87392C8.41109 10.0285 8.63005 10.183 8.849 10.2989C8.97779 10.3763 9.13235 10.4149 9.26115 10.4149H16.873C16.9502 10.4149 17.0533 10.4149 17.1434 10.3504C17.3881 10.1959 17.6457 10.0285 17.8775 9.86104C17.942 9.8224 17.9806 9.758 18.0192 9.68073L18.1222 9.53906L18.0192 9.43602H7.90879L8.07623 9.68073L8.06335 9.6936ZM11.6567 6.96315C10.8067 6.96315 9.96951 7.09195 9.14523 7.22074L8.50125 7.32378C7.89591 7.41394 7.29058 7.51697 6.69812 7.62001L5.7064 7.78744L3.6328 8.13518L3.55552 8.689L22.4498 8.77916L22.5399 8.22534L21.8444 8.04503L19.6807 7.69728L17.6199 7.34954C17.298 7.29802 16.9759 7.23362 16.654 7.19498L16.3191 7.14346C15.8812 7.07906 15.4562 7.01467 15.0182 7.00179C14.7865 7.00179 14.5546 7.00179 14.3228 7.00179H12.9318C12.6355 7.00179 12.3265 7.00179 12.0303 7.00179C11.9143 7.00179 11.7855 7.00179 11.6696 7.00179L11.6567 6.96315ZM10.9226 6.2419L15.0698 6.33206L15.16 5.45625L10.9226 5.3661V6.2419ZM10.1112 3.96223C10.1369 4.05238 10.1627 4.12966 10.2271 4.19406C10.4332 4.46453 10.6779 4.72212 11.1415 4.72212C11.7598 4.69636 12.3265 4.69636 12.906 4.69636C13.5371 4.69636 14.1682 4.69636 14.7993 4.72212C15.1857 4.72212 15.5463 4.6706 15.8039 4.28422C15.8555 4.20694 15.9069 4.11678 15.9585 4.01375L16.1131 3.7304H10.0082L10.0983 3.97511L10.1112 3.96223ZM12.9833 1.70831C12.8416 1.70831 12.6871 1.70831 12.5454 1.74695C12.2234 1.81135 11.9015 1.86287 11.5665 1.90151C11.3605 1.92727 11.1415 1.9659 10.9355 1.99166C10.3301 2.0947 8.57853 2.40381 8.57853 2.40381L8.50125 2.9705L17.6585 3.06066V2.95763C17.6457 2.76443 17.6457 2.68716 17.6199 2.597C17.6071 2.5326 17.5297 2.39093 17.4268 2.36517C17.1047 2.31365 15.9069 2.12046 15.9069 2.12046L15.3274 2.01742C14.9539 1.95302 14.5804 1.88863 14.2068 1.83711L13.8334 1.78559C13.55 1.73407 13.2667 1.69543 12.9833 1.69543V1.70831Z" fill="#515151"/>
<path d="M18.3675 22.4958C17.5045 22.4958 16.8605 21.6973 16.8477 20.9761C16.8477 20.5768 17.0151 20.1647 17.3242 19.8555C17.5818 19.585 17.9038 19.4434 18.2387 19.4434C18.2902 19.4434 18.3804 19.4434 18.3804 19.4434C18.8827 19.4434 19.2304 19.585 19.5137 19.8684C19.7971 20.1518 19.9517 20.5511 19.9388 20.9503C19.9388 21.8776 19.1789 22.4314 18.4704 22.4829H18.3675V22.4958ZM18.3804 20.0873C17.8266 20.0873 17.5174 20.3836 17.4916 20.9503C17.4916 21.1692 17.5818 21.3882 17.7492 21.5813C17.9166 21.7617 18.1485 21.8648 18.3675 21.8648C18.844 21.8518 19.3077 21.4655 19.2948 20.9374C19.2948 20.4351 18.947 20.0745 18.4834 20.0745H18.3804V20.0873Z" fill="#515151"/>
<path d="M7.7147 22.4821C6.81314 22.4821 6.25932 21.6579 6.22068 21.0911C6.18204 20.6532 6.3366 20.2025 6.6457 19.8804C6.91618 19.5971 7.26392 19.4297 7.61166 19.4297C7.66318 19.4297 7.75334 19.4297 7.75334 19.4297C8.6549 19.4297 9.286 20.0865 9.29888 20.8979C9.29888 21.7351 8.69354 22.4048 7.83062 22.4564H7.7147V22.4821ZM7.74046 20.0737C7.19952 20.0737 6.86466 20.4085 6.86466 20.9494C6.86466 21.4389 7.2124 21.7995 7.74046 21.8381C8.01093 21.8381 8.24276 21.7222 8.42308 21.5419C8.5905 21.3616 8.68066 21.1427 8.66778 20.9108C8.64202 20.4987 8.37156 20.0608 7.8435 20.0608H7.74046V20.0737Z" fill="#515151"/>
<path d="M12.2985 11.9727H12.2083C12.0091 11.9727 11.8477 12.1341 11.8477 12.3332V12.4363C11.8477 12.6355 12.0091 12.7969 12.2083 12.7969H12.2985C12.4976 12.7969 12.6591 12.6355 12.6591 12.4363V12.3332C12.6591 12.1341 12.4976 11.9727 12.2985 11.9727Z" fill="#515151"/>
<path d="M10.6516 11.999H10.5872C10.388 11.999 10.2266 12.1605 10.2266 12.3596V12.3725C10.2266 12.5716 10.388 12.7331 10.5872 12.7331H10.6516C10.8508 12.7331 11.0122 12.5716 11.0122 12.3725V12.3596C11.0122 12.1605 10.8508 11.999 10.6516 11.999Z" fill="#515151"/>
<path d="M15.5344 11.9863H15.47C15.2708 11.9863 15.1094 12.1478 15.1094 12.3469V12.3726C15.1094 12.5718 15.2708 12.7333 15.47 12.7333H15.5344C15.7336 12.7333 15.895 12.5718 15.895 12.3726V12.3469C15.895 12.1478 15.7336 11.9863 15.5344 11.9863Z" fill="#515151"/>
<path d="M13.911 11.9863H13.8724C13.6732 11.9863 13.5117 12.1478 13.5117 12.3469V12.3985C13.5117 12.5976 13.6732 12.759 13.8724 12.759H13.911C14.1102 12.759 14.2716 12.5976 14.2716 12.3985V12.3469C14.2716 12.1478 14.1102 11.9863 13.911 11.9863Z" fill="#515151"/>
</g>
</g>
<defs>
<clipPath id="clip0_234_14149">
<rect width="24.375" height="24.375" fill="white" transform="translate(0.917969 0.194336)"/>
</clipPath>
</defs>
</svg>
