<svg width="22" height="25" viewBox="0 0 22 25" fill="none" xmlns="http://www.w3.org/2000/svg">
<path d="M11.297 0.203826C11.4773 0.339858 11.5184 0.523343 11.5121 0.738463C11.4995 1.02634 11.5121 1.31739 11.5121 1.60527C11.5121 1.69385 11.5153 1.76344 11.6165 1.81406C12.0847 2.04183 12.2872 2.43412 12.2587 2.94028C12.246 3.15856 12.3093 3.25979 12.5307 3.32939C13.2774 3.57298 13.7456 4.2563 13.7708 5.08831C13.7772 5.28445 13.7772 5.48059 13.7708 5.67356C13.7677 5.78745 13.8025 5.82858 13.9195 5.85389C14.5902 5.99308 14.9003 6.38536 14.9003 7.07817C14.9003 7.27431 14.8939 7.47045 14.9003 7.66342C14.9319 8.4986 14.5396 9.1661 14.0587 9.79564C13.9385 9.95379 13.7614 9.96959 13.5969 9.86207C13.4261 9.75134 13.3976 9.58051 13.4893 9.40969C13.5779 9.24518 13.6918 9.09334 13.7962 8.93832C13.9037 8.77698 14.0049 8.60932 14.0745 8.42266C14.2138 8.04305 14.1884 8.01458 13.7898 8.04305C13.695 8.04937 13.6538 8.08417 13.6221 8.16958C13.5083 8.50491 13.3311 8.80862 13.0875 9.07119C13.0211 9.14079 13.0148 9.21987 13.0148 9.30845C13.0148 9.62164 13.0243 9.93483 13.0148 10.2448C13.0085 10.3967 13.0622 10.4631 13.2078 10.5043C13.9828 10.7257 14.7516 10.9598 15.5235 11.1939C16.3428 11.4407 16.8078 11.9943 16.9249 12.8358C17.2318 15.0629 17.5323 17.2932 17.8297 19.5203C17.855 19.707 17.9183 19.7607 18.1049 19.7607C18.6902 19.7671 19.2817 19.6943 19.8638 19.7987C20.971 19.9948 21.7556 21.0198 21.6765 22.1365C21.5942 23.2754 20.6547 24.196 19.5158 24.2087C17.7316 24.2245 15.9442 24.215 14.1599 24.215C13.5652 24.215 12.9704 24.215 12.3757 24.215C12.1006 24.215 11.9455 24.0821 11.9455 23.8638C11.9455 23.6424 12.1037 23.5158 12.3789 23.5127C14.7199 23.5127 17.061 23.5127 19.4019 23.5127C20.3004 23.5127 20.9869 22.8326 20.9773 21.9689C20.9679 21.1527 20.3035 20.4757 19.4842 20.463C18.7629 20.4536 18.0447 20.463 17.3235 20.4567C17.1874 20.4567 17.121 20.4915 17.0799 20.6307C16.8269 21.4438 16.1498 21.9562 15.2894 21.9594C14.0303 21.9657 12.8629 22.2821 11.7747 22.9053C10.8288 23.4495 9.85444 23.9208 8.75983 24.0979C8.40552 24.1549 8.04803 24.2087 7.6874 24.2087C6.074 24.2118 4.4606 24.2214 2.8472 24.2087C1.5723 24.1991 0.582117 23.1394 0.639057 21.8739C0.689679 20.7225 1.65139 19.7765 2.80291 19.7544C3.28693 19.7449 3.77411 19.7449 4.25813 19.7544C4.41315 19.7576 4.4606 19.6975 4.47641 19.5614C4.7295 17.6887 4.98258 15.8158 5.23882 13.943C5.29577 13.5254 5.34639 13.1047 5.41915 12.6902C5.54885 11.9468 5.98542 11.447 6.70354 11.2192C7.49126 10.9661 8.28847 10.7384 9.08568 10.5074C9.25336 10.46 9.32297 10.3841 9.29762 10.2132C9.28817 10.1373 9.29128 10.0582 9.29762 9.97914C9.33243 9.49826 9.31342 9.0364 8.93383 8.6631C8.83892 8.57135 8.7978 8.4195 8.74085 8.2898C8.63329 8.03988 8.51624 7.98294 8.24101 8.03355C8.12397 8.0557 8.15559 8.12213 8.17142 8.18857C8.22836 8.42583 8.32959 8.64411 8.46563 8.84974C8.58267 9.02374 8.70605 9.19773 8.81361 9.37806C8.91801 9.55521 8.87372 9.75134 8.71871 9.85575C8.56686 9.96013 8.36123 9.9285 8.23785 9.76717C7.72853 9.09966 7.3489 8.38787 7.41217 7.51157C7.42799 7.27747 7.40584 7.04021 7.43115 6.80927C7.48809 6.30627 7.82659 5.94563 8.32642 5.86021C8.50358 5.82858 8.5542 5.7653 8.54788 5.59131C8.53522 5.27812 8.51624 4.96177 8.59216 4.65807C8.75983 3.97475 9.18062 3.51288 9.85123 3.29459C10.0031 3.24398 10.0664 3.18703 10.0569 3.02253C10.0189 2.47524 10.1992 2.03868 10.7243 1.79191C10.8193 1.74763 10.8097 1.6717 10.8097 1.59578C10.8097 1.30789 10.8193 1.01685 10.8097 0.728972C10.8003 0.513852 10.8446 0.330368 11.0249 0.194336H11.3065L11.297 0.203826ZM13.0337 19.7576C14.3086 19.7576 15.5868 19.7576 16.8616 19.7576C17.2064 19.7576 17.1589 19.7924 17.1179 19.4729C16.8236 17.2837 16.5263 15.0946 16.2226 12.9054C16.1498 12.3834 15.8619 12.0354 15.3527 11.8804C15.1502 11.8203 14.9476 11.7634 14.7484 11.6938C14.6345 11.6558 14.5491 11.6716 14.4479 11.7444C12.265 13.304 10.0822 14.8605 7.89619 16.4169C7.78231 16.4992 7.73485 16.5814 7.73485 16.7238C7.74117 17.6539 7.73485 18.5839 7.74117 19.514C7.74117 19.6026 7.66842 19.7607 7.85823 19.7576C8.01008 19.7544 8.17775 19.8335 8.25367 19.5709C8.46878 18.8275 8.97811 18.3561 9.74368 18.2106C10.0726 18.1473 10.4112 18.1473 10.7466 18.1252C11.9486 18.0524 13.1539 17.9797 14.3561 17.9132C14.5301 17.9037 14.5775 17.8468 14.5744 17.676C14.5649 16.9326 14.5712 16.1923 14.5712 15.4489C14.5712 15.1198 14.5681 14.7909 14.5744 14.465C14.5808 14.2657 14.6914 14.1455 14.8939 14.1296C15.0869 14.1138 15.2324 14.2373 15.2672 14.4397C15.2767 14.4935 15.2735 14.5472 15.2735 14.6042C15.2735 15.7684 15.2735 16.9326 15.2735 18.0967C15.2735 18.4637 15.166 18.5712 14.8022 18.5934C13.2078 18.6851 11.6133 18.7769 10.0189 18.8749C9.56019 18.9034 9.22801 19.1407 9.00659 19.5393C8.8927 19.7417 8.91168 19.764 9.14894 19.764C10.4396 19.764 11.7336 19.764 13.0243 19.764L13.0337 19.7576ZM5.3021 23.5127C5.77979 23.5127 6.25748 23.5127 6.73518 23.5127C7.29196 23.5127 7.84557 23.5222 8.39919 23.4462C9.42418 23.3071 10.3542 22.9116 11.24 22.3928C12.5023 21.6525 13.8531 21.2445 15.3242 21.2539C15.7259 21.2539 16.0423 21.061 16.2669 20.7256C16.3143 20.656 16.3966 20.5769 16.3587 20.4978C16.3175 20.4093 16.2036 20.4599 16.1245 20.4599C13.0559 20.4599 9.98412 20.4599 6.91549 20.4599C6.38402 20.4599 5.84939 20.4662 5.31792 20.4567C5.13759 20.4536 5.09014 20.5073 5.09963 20.6813C5.11229 20.9471 5.10912 21.2128 5.09963 21.4786C5.07749 22.1176 4.57765 22.6427 3.93229 22.7091C3.29959 22.7724 2.69851 22.3359 2.55616 21.7127C2.4834 21.3963 2.52768 21.0736 2.51819 20.7541C2.51187 20.4757 2.51819 20.4726 2.25246 20.5896C1.60394 20.8775 1.23697 21.5735 1.36983 22.2599C1.51219 22.9813 2.1101 23.5001 2.83771 23.5095C3.66023 23.519 4.48274 23.5095 5.30526 23.5095L5.3021 23.5127ZM13.7298 11.3964C13.3311 11.2762 12.9831 11.1686 12.6351 11.0706C12.4168 11.0073 12.3093 10.8776 12.3125 10.6466C12.3188 10.3746 12.3125 10.0994 12.3125 9.82728C12.3125 9.70073 12.2777 9.68175 12.1638 9.7292C11.4962 10.0013 10.8224 10.0044 10.1549 9.7292C10.0126 9.67226 9.99679 9.72287 9.99991 9.84309C10.0031 10.0867 9.99991 10.3271 9.99991 10.5707C9.99991 10.9219 9.95253 10.9883 9.61713 11.0895C8.75035 11.3521 7.88037 11.6147 7.0104 11.8677C6.4378 12.0354 6.15308 12.4151 6.07716 12.9972C5.93797 14.0886 5.77979 15.18 5.6311 16.2714C5.48242 17.3628 5.3369 18.4542 5.18188 19.5424C5.15657 19.7165 5.18821 19.7734 5.37486 19.7671C5.83673 19.7513 6.29861 19.7513 6.76049 19.7671C6.96927 19.7734 7.03887 19.7228 7.03571 19.5014C7.02622 18.1347 7.03571 16.7649 7.02938 15.3983C7.02622 14.6516 7.3141 14.079 7.93098 13.6488C8.94332 12.9433 9.94619 12.2157 10.9522 11.5008C11.0154 11.4565 11.0787 11.4091 11.1483 11.3743C11.3128 11.292 11.4552 11.3331 11.5691 11.4691C11.6766 11.5957 11.683 11.7475 11.5849 11.8804C11.5311 11.9531 11.452 12.0101 11.376 12.0639C10.3511 12.7947 9.32931 13.5318 8.29795 14.2562C7.80761 14.5979 7.6874 15.0661 7.75383 15.664C9.75002 14.2404 11.7178 12.8389 13.7266 11.4059L13.7298 11.3964ZM13.0496 6.8061H13.0654C13.0654 6.59415 13.0749 6.38535 13.0654 6.1734C13.0464 5.85072 12.8883 5.61029 12.5845 5.48375C12.2808 5.35721 12.0056 5.42048 11.7557 5.63244C11.335 5.98991 10.9774 5.98991 10.5631 5.63244C10.3163 5.42048 10.0411 5.35405 9.73735 5.47742C9.43685 5.6008 9.26281 5.84123 9.25336 6.16391C9.24068 6.61629 9.22167 7.06868 9.26603 7.52106C9.36402 8.49227 10.1771 9.21671 11.1546 9.21987C12.1321 9.21987 12.9515 8.49543 13.0464 7.52739C13.0685 7.28696 13.0496 7.04337 13.0496 6.80294V6.8061ZM13.0211 4.90167C13.0021 4.39233 12.5276 3.93995 11.9677 3.92097C11.4267 3.90199 10.8889 3.90199 10.3479 3.92097C9.78795 3.93995 9.3103 4.39233 9.2945 4.88584C9.3103 4.88584 9.32609 4.89534 9.33555 4.88901C9.95253 4.59796 10.5187 4.67073 11.0344 5.11995C11.1356 5.20853 11.2115 5.18322 11.297 5.10413C11.5153 4.90166 11.7747 4.78778 12.0689 4.73716C12.4042 4.67705 12.7142 4.76879 13.0211 4.90167ZM4.39733 21.0356C4.39733 20.9028 4.391 20.77 4.39733 20.6371C4.40682 20.5105 4.37202 20.4536 4.22966 20.4599C3.94178 20.4694 3.65073 20.463 3.36286 20.4599C3.27428 20.4599 3.21417 20.4726 3.21734 20.5865C3.22366 20.8838 3.20468 21.1812 3.22682 21.4754C3.24897 21.7949 3.5242 22.0226 3.83106 22.0101C4.14108 21.9974 4.37835 21.7569 4.39416 21.4311C4.40049 21.2982 4.39416 21.1653 4.39416 21.0325L4.39733 21.0356ZM11.123 3.21234C11.6039 3.20601 11.5532 3.26928 11.5595 2.96242C11.5659 2.60495 11.4235 2.41829 11.1641 2.41513C10.8984 2.41196 10.775 2.6081 10.7528 2.97507C10.7307 3.34205 10.9932 3.17122 11.1261 3.21234H11.123ZM8.54155 6.93265C8.54155 6.83774 8.54155 6.74599 8.54155 6.65109C8.54155 6.56884 8.50675 6.54669 8.42133 6.56252C8.18406 6.60996 7.98477 7.11613 8.13662 7.30595C8.14927 7.32176 8.17458 7.33442 8.19356 7.34074C8.415 7.41983 8.54155 7.32809 8.54155 7.09398C8.54155 7.04021 8.54155 6.98643 8.54155 6.92948V6.93265ZM14.198 7.10031C14.2042 6.87887 14.1757 6.6764 13.9354 6.57833C13.8373 6.54037 13.7677 6.54037 13.7708 6.6764C13.774 6.85673 13.7708 7.03388 13.7708 7.2142C13.7708 7.26482 13.7677 7.31859 13.8373 7.3439C14.0524 7.41983 14.1948 7.32809 14.1948 7.10348L14.198 7.10031Z" fill="#515151"/>
</svg>
