<svg width="59" height="59" viewBox="0 0 59 59" fill="none" xmlns="http://www.w3.org/2000/svg">
<path d="M29.5781 0.65332C13.5874 0.65332 0.578125 13.6626 0.578125 29.6533C0.578125 45.644 13.5874 58.6533 29.5781 58.6533C45.5681 58.6533 58.5781 45.644 58.5781 29.6533C58.5781 13.6626 45.5681 0.65332 29.5781 0.65332ZM29.5781 57.9328C24.3877 57.9328 19.5229 56.5206 15.3368 54.0702C15.3685 54.0328 15.3901 53.9989 15.434 53.9557C15.8397 53.5508 15.9398 53.1458 15.9398 53.1458V52.4376L15.839 51.6278L15.5349 51.122L15.4333 49.8056H15.13L15.0284 49.0974H15.5342L16.5465 48.0851V47.5786L16.4449 46.9712H16.1409L16.2424 45.3515L16.9961 43.9343C16.9961 43.9343 16.8498 43.226 16.9507 42.5171C17.0516 41.8081 16.9507 41.5048 16.9507 41.5048C16.9507 41.5048 16.9507 41.5048 16.4449 41.3023C15.9384 41.0999 15.7367 40.6949 15.4326 40.4925C15.1293 40.29 14.8252 39.6826 14.8252 39.6826C14.8252 39.6826 14.117 39.0753 13.5096 38.8728C12.9022 38.6703 13.5096 38.8728 13.104 38.7712C12.699 38.6696 11.4843 38.1638 11.2825 37.8605C11.0801 37.5564 9.9662 37.0507 9.66287 36.7473C9.35882 36.4433 9.15132 36.2408 9.15132 36.2408L9.07639 35.7343C9.07639 35.7343 9.25723 35.2285 9.05549 34.8236C8.85303 34.4187 9.15708 34.3171 9.05549 34.0138C8.9539 33.7104 9.05549 33.4064 9.05549 33.4064L8.54898 32.5965C8.54898 32.5965 8.54898 32.5965 8.34724 32.1916C8.14478 31.7867 8.14478 31.4834 7.73986 31.1793C7.33422 30.8753 7.0309 30.167 6.52439 30.0085C6.0186 29.85 5.30963 28.3442 5.30963 28.3442C5.30963 28.3442 5.10717 27.6359 4.3982 27.0285C3.68995 26.4212 3.68995 27.0286 3.18344 27.6359C2.67693 28.2433 2.67693 27.6359 2.67693 27.6359C2.67693 27.6359 2.35127 28.4595 2.06955 28.3442C1.80873 28.2375 1.57169 28.1403 1.34401 28.0481C1.38796 27.2692 1.4665 26.5004 1.57169 25.7396H1.73812L2.2785 25.2893V24.8404L2.95432 24.3901V23.8497H3.63015V23.3994V23.0298V22.4916L3.2699 22.0485V21.5982V21.1479V20.5174H2.81959V20.5138C3.01845 19.9317 3.23172 19.3567 3.46732 18.7925C3.55594 18.817 3.6143 18.8509 3.63015 18.8963C3.63015 18.8963 10.1146 11.8715 14.7979 11.3311L15.9687 8.17891C15.9687 8.17891 15.9687 8.89941 16.419 8.17891C16.8693 7.45841 15.9687 8.35903 16.8693 7.45841C17.7699 6.55779 17.7699 6.37767 18.3103 6.10748C18.8506 5.8373 19.1208 5.65717 19.391 5.47705C19.6612 5.29692 20.6519 4.75655 20.6519 4.75655H21.1022L20.5618 5.38698L20.0215 5.92736L19.391 6.46773L18.9407 6.73792L18.6705 7.36835L18.9407 7.99879C18.9407 7.99879 19.1208 7.99879 19.7513 7.90872C20.3817 7.81866 21.2823 7.81866 21.1022 7.54848C20.9221 7.27829 21.4624 6.91804 21.7326 6.73792C22.0028 6.55779 22.0028 6.55779 22.0028 6.55779L22.7233 6.19754C22.7233 6.19754 22.7233 6.19754 23.2637 5.92736C23.8041 5.65717 23.8041 5.65717 23.8041 5.65717L24.6146 4.75655H25.0649L25.6053 3.76587V3.22549V2.505L25.155 2.05469C25.155 2.05469 25.4583 2.51076 24.4352 1.85007C26.1068 1.54241 27.8223 1.37382 29.5781 1.37382C30.2972 1.37382 31.0069 1.40984 31.713 1.46316C31.6143 1.97543 31.5934 2.33712 31.705 2.45312C32.0487 2.80833 32.0487 2.80833 32.0487 2.80833L32.4788 3.60808L33.1655 3.78532L33.337 4.22987L32.9075 4.85166L32.0487 4.76231C32.0343 4.76231 31.9486 4.76231 31.5336 4.76231C30.9319 4.76231 30.3318 4.76231 30.3318 4.76231H29.6206C29.6206 4.76231 29.5587 5.02962 29.215 5.29548C28.8713 5.56207 28.7856 5.22703 28.6134 5.66077C28.4419 6.09451 28.2697 6.80564 28.2697 6.80564L28.3562 7.33809L28.9571 7.69402C28.9571 7.69402 29.3382 7.69402 29.6199 7.69402C29.9016 7.69402 30.8462 7.78336 30.8462 7.78336C31.1027 7.25019 30.589 6.36182 30.589 6.36182H30.0738L30.5032 5.66077H30.9319H31.4478L32.0487 6.45044L32.2202 7.16085V7.87126L31.8765 8.49233L31.2756 8.75891H30.4175L29.6206 9.20346L28.6998 9.91387C28.6998 9.91387 28.6998 9.91387 28.2704 10.625C27.841 11.3354 27.498 11.8686 27.498 11.8686L27.5838 12.579L27.7553 13.1122C27.1537 13.4674 28.0125 13.2008 26.725 13.4674C25.4367 13.7339 25.4367 13.7339 25.4367 13.7339C25.4367 13.7339 25.2652 13.8226 25.093 13.9998C24.9208 14.1778 25.1788 13.2894 24.9208 14.1778C24.6636 15.0661 24.4057 15.5107 24.4057 15.5107L25.093 16.0439C25.093 16.0439 24.4914 16.4884 25.093 16.577C25.6939 16.6656 24.8358 16.577 25.6939 16.6656C26.5528 16.755 27.3251 16.6656 27.3251 16.6656L27.7553 16.0439L28.6134 15.2448L29.215 14.4458L29.6206 13.9126L30.3318 13.5574C30.3318 13.5574 30.7605 13.1136 30.9319 13.4681C31.1034 13.8226 31.0184 14.8896 31.0184 14.8896L32.0487 15.1562H32.4788C32.4788 15.1562 32.6503 15.2455 32.9083 15.4228C33.1655 15.6 33.6806 15.6894 33.6806 15.6894L34.0243 14.9782L34.6252 14.3565C34.6252 14.3565 34.9696 14.2671 35.2268 14.2671C35.4848 14.2671 35.9135 14.5337 35.9135 14.5337L36.7204 14.7117H38.8336L39.6917 14.3565L40.1219 14.623C40.3791 15.3334 40.2926 15.6 40.1219 15.8666C39.9497 16.1332 39.9497 16.1332 39.9497 16.1332C39.9497 16.1332 39.8647 16.2218 39.0916 16.577C38.3192 16.9322 36.6873 17.2874 36.3436 17.2874C35.9999 17.2874 35.9999 17.2874 35.9999 17.2874C35.9999 17.2874 35.8284 17.1988 35.2275 17.1102C34.6259 17.0208 33.5956 16.577 33.5956 16.577L32.651 16.2218H32.2209H31.7922C31.7922 16.2218 30.9327 16.1332 30.4182 16.1332C29.9023 16.1332 29.6214 16.3112 29.6214 16.3112L29.2157 16.3998L28.0132 17.1995L26.9829 17.8213L26.4677 18.1765L25.9519 18.5627L25.5224 19.1542L24.2342 20.2199C23.8905 20.6644 23.8905 20.6644 23.8905 20.6644L22.688 23.2308V23.9513L22.1729 24.3951V25.6394C22.1729 25.6394 22.6023 27.8607 22.1729 28.1266C21.7434 28.3932 22.1729 29.1929 22.1729 29.1929L21.9819 29.7643L23.1081 30.9689L24.2342 31.8573L26.725 33.3675H27.1537H28.3569H28.872C28.872 33.3675 28.6998 32.9229 29.9881 32.7457C31.2763 32.5685 31.2763 32.5677 31.2763 32.5677L31.8772 32.3905L32.7361 32.4798L33.2512 32.5685L33.8521 32.9237L34.9689 33.3682H35.3133V33.9014V34.7897V35.766V36.2106V36.921L36.1707 37.6314V38.2532H36.5143L37.0302 39.3188C37.0302 39.3188 37.2017 40.0299 37.0302 40.7403C36.8587 41.4515 36.8587 41.4515 36.8587 41.4515L36.6015 42.2505C36.6015 42.2505 36.773 42.695 36.6873 43.0502C36.6671 43.1338 36.652 43.1951 36.6404 43.2441C36.6959 43.1302 36.8242 43.141 37.1073 44.1166C37.5461 45.6267 37.5461 45.6267 37.5461 45.6267C37.5461 45.6267 37.6311 45.9819 37.5461 46.3371C37.4596 46.6931 37.2017 48.0253 37.2017 48.0253L37.5836 48.5584V48.9136H37.9748C37.9748 48.9136 37.3739 49.1802 37.9748 49.1802C38.5757 49.1802 38.5757 49.1802 38.5757 49.1802L39.1766 48.7364C39.1766 48.7364 39.1766 48.2926 39.949 47.9374C40.722 47.5822 40.722 47.5822 40.722 47.5822L41.1515 47.2262L41.5809 46.6938C41.5809 46.6938 42.1825 45.9827 42.5262 45.7168C42.8699 45.4502 42.8699 45.4502 42.8699 45.4502C42.8699 45.4502 43.0413 45.3616 43.5572 44.7398C44.0724 44.118 44.0724 44.118 44.0724 44.118V43.7621L45.0177 42.4292L45.4464 41.6301L45.9622 39.8318C45.9622 39.8318 46.8203 37.4549 46.8203 37.189C46.8203 36.9224 46.8203 36.212 46.8203 36.212L47.3362 35.5009C47.3362 35.5009 47.5934 33.4583 47.6799 33.0137C47.7656 32.5692 47.7656 32.5692 47.7656 32.5692C47.7656 32.5692 47.9371 32.7471 48.2808 31.4149C48.6245 30.082 48.6245 30.082 48.6245 30.082V29.3716C48.6245 29.3716 48.2808 29.1936 48.6245 28.7491C48.9689 28.3053 48.9689 28.3053 48.9689 28.3053V27.5062L49.0539 26.2627L47.8521 25.8181L47.079 25.2857L46.5638 24.9297L45.8772 24.1307L45.3613 23.2323C44.7604 22.9758 45.2756 23.2423 44.7604 22.9758C44.2453 22.7092 44.2453 22.7092 44.2453 22.7092C44.2453 22.7092 43.1285 21.377 43.1285 21.1104C43.1285 20.8438 43.1285 20.8438 43.1285 20.8438L43.0428 20.222C43.0428 20.222 43.3864 19.4223 43.9016 20.222C44.416 21.0218 44.0731 20.222 44.416 21.0218C44.7604 21.8208 43.9873 21.0218 44.7604 21.8208C45.5328 22.6206 45.7057 21.8114 45.7057 21.8114C45.7057 21.8114 45.8772 21.5355 46.2209 21.8114C46.5646 22.0874 46.9933 23.2323 46.9933 23.2323H47.3377H47.7671C47.7671 23.2323 47.9385 23.2236 48.1965 23.2323C48.4537 23.2423 48.7116 23.2323 48.7116 23.2323C48.7116 23.2323 48.7116 22.3532 49.0553 22.0874C49.399 21.8208 49.3133 22.4426 49.399 21.8208C49.4847 21.199 50.0863 21.199 49.399 20.4886C48.7124 19.7782 48.3687 19.6002 48.2829 19.2443C48.1972 18.8891 48.1115 19.1283 47.8535 18.5649C47.5956 18.0014 47.1669 17.4683 46.651 17.2903C46.1359 17.1131 45.9644 17.2017 45.7064 16.8458C45.4485 16.4906 44.8483 16.0467 44.8483 16.0467L45.0198 15.6022H45.6207C45.6207 15.6022 45.7922 15.9581 46.0501 16.1354C46.3081 16.3126 46.7368 16.7571 46.7368 16.7571C46.7368 16.7571 47.3384 16.8458 47.8535 16.8458C48.3687 16.8458 47.7678 17.1131 48.3687 16.8458C48.9703 16.5792 49.7247 16.3133 49.7247 16.3133L50.6872 16.224L51.0316 15.6022L51.4611 14.6252V14.0034C51.4611 14.0034 51.1844 12.5624 50.6685 10.839C54.4028 15.0186 56.9109 20.3106 57.6372 26.1495C56.5982 25.3649 56.0081 25.4694 56.8396 28.7938C57.238 30.3846 55.4901 29.7254 55.4901 29.7254L54.4979 31.1354L53.2371 32.7061V33.477V36.359V37.2596H52.3365V38.7006L51.2557 41.5826V42.4832V44.533H51.9762L52.4741 45.7961C52.4741 45.7961 52.5288 45.894 52.6074 46.0461C47.4702 53.2323 39.0656 57.9328 29.5781 57.9328Z" fill="#CA1C26"/>
</svg>
