<svg width="60" height="59" viewBox="0 0 60 59" fill="none" xmlns="http://www.w3.org/2000/svg">
<path d="M36.7232 35.5996L43.6942 29.4761L34.1705 28.3054L29.9486 20.3809L25.7268 28.3054L16.2031 29.4761L23.1741 35.5996L21.505 44.2445L29.9486 40.1022L38.3923 44.2445L36.7232 35.5996ZM29.9486 38.6613L23.4686 41.8131L24.745 35.1493L19.4431 30.4666L26.7086 29.5661L29.9486 23.4426L33.1887 29.5661L40.4541 30.4666L35.1523 35.1493L36.4287 41.8131L29.9486 38.6613Z" fill="#CA1C26"/>
<path d="M44.3818 26.3243L41.3382 20.3809L38 26.5944L39.2764 27.2248L41.3382 23.4426L43.4 27.4949L48.3091 28.1253L44.7746 31.2771L45.6582 35.6896L41.6327 33.7986L40.9455 34.9692L47.6219 38.2111L46.3455 31.7274L51.5492 27.2248L44.3818 26.3243Z" fill="#CA1C26"/>
<path d="M59.31 24.7902L53.419 24.0698L50.8663 19.207L48.1172 24.34L49.4917 24.9703L50.8663 22.2688L52.4372 25.3305L56.07 25.7808L53.419 28.0321L54.1063 31.364L51.259 29.9232L50.5717 31.0938L56.07 33.7954L54.9899 28.4823L59.31 24.7902Z" fill="#CA1C26"/>
<path d="M18.5586 23.4426L20.6204 27.2248L21.8968 26.5944L18.5586 20.3809L15.515 26.3243L8.34766 27.2248L13.5513 31.7274L12.2749 38.2111L18.9513 34.9692L18.2641 33.7986L14.2386 35.6896L15.1222 31.2771L11.5877 28.1253L16.4968 27.4949L18.5586 23.4426Z" fill="#CA1C26"/>
<path d="M9.32807 31.0938L8.64079 29.9232L5.79351 31.364L6.48078 28.0321L3.82986 25.7808L7.4626 25.3305L9.03352 22.2688L10.4081 24.9703L11.7826 24.34L9.03352 19.207L6.48078 24.0698L0.589844 24.7902L4.90986 28.4823L3.82986 33.7954L9.32807 31.0938Z" fill="#CA1C26"/>
<path d="M50.5705 14.512L47.0359 13.8816L46.7414 15.2324L52.7305 16.313L53.9087 10.8198L52.436 10.5497L51.7487 13.7915C47.2323 7.84814 40.3595 3.88587 32.505 2.98535L32.3086 4.33613C39.7704 5.23664 46.3487 8.92876 50.5705 14.512Z" fill="#CA1C26"/>
<path d="M25.526 4.6174L23.4642 7.31895L24.6424 8.12941L28.177 3.53678L23.1697 0.294922L22.286 1.37554L25.2315 3.26662C17.0824 4.7975 10.0132 9.48019 6.08594 16.2341L7.36231 16.8644C11.0932 10.5608 17.8678 6.05822 25.526 4.6174Z" fill="#CA1C26"/>
<path d="M9.31085 44.7795L12.8454 45.4099L13.14 44.0591L7.15084 42.9785L5.97266 48.4717L7.44539 48.7418L8.13267 45.5C12.6491 51.4434 19.62 55.3156 27.4746 56.2161L27.6709 54.8653C20.1109 54.0549 13.5327 50.3627 9.31085 44.7795Z" fill="#CA1C26"/>
<path d="M34.358 54.6835L36.4198 51.982L35.2416 51.1715L31.707 55.7642L36.7143 59.006L37.598 57.9254L34.6525 56.0343C42.8016 54.5034 49.8708 49.8208 53.798 43.0669L52.5217 42.4365C48.7908 48.7401 42.0162 53.2427 34.358 54.6835Z" fill="#CA1C26"/>
</svg>
